<?xml version="1.0" encoding="UTF-8" standalone="no"?>
<svg
   xmlns:dc="http://purl.org/dc/elements/1.1/"
   xmlns:cc="http://creativecommons.org/ns#"
   xmlns:rdf="http://www.w3.org/1999/02/22-rdf-syntax-ns#"
   xmlns:svg="http://www.w3.org/2000/svg"
   xmlns="http://www.w3.org/2000/svg"
   xmlns:xlink="http://www.w3.org/1999/xlink"
   xmlns:sodipodi="http://sodipodi.sourceforge.net/DTD/sodipodi-0.dtd"
   xmlns:inkscape="http://www.inkscape.org/namespaces/inkscape"
   version="1.1"
   height="227"
   width="162"
   id="svg4601"
   sodipodi:docname="stats waywe.svg"
   inkscape:version="0.92.4 (5da689c313, 2019-01-14)">
  <metadata
     id="metadata4605">
    <rdf:RDF>
      <cc:Work
         rdf:about="">
        <dc:format>image/svg+xml</dc:format>
        <dc:type
           rdf:resource="http://purl.org/dc/dcmitype/StillImage" />
        <dc:title></dc:title>
      </cc:Work>
    </rdf:RDF>
  </metadata>
  <sodipodi:namedview
     pagecolor="#ffffff"
     bordercolor="#666666"
     borderopacity="1"
     objecttolerance="10"
     gridtolerance="10"
     guidetolerance="10"
     inkscape:pageopacity="0"
     inkscape:pageshadow="2"
     inkscape:window-width="1920"
     inkscape:window-height="1017"
     id="namedview4603"
     showgrid="false"
     inkscape:zoom="2.9405674"
     inkscape:cx="21.269387"
     inkscape:cy="103.77568"
     inkscape:window-x="-8"
     inkscape:window-y="-8"
     inkscape:window-maximized="1"
     inkscape:current-layer="g4599" />
  <defs
     id="defs4577">
    <path
       id="path-1"
       opacity="1"
       fill-rule="evenodd"
       d="M2.5,0 C3.879787561235,0 5,1.120212438765 5,2.5 L5,227 L0,227 L0,2.5 C0,1.1202124387650003 1.1202124387649994,4.440892098500626e-16 2.4999999999999996,0 L2.5,0Z" />
    <path
       id="path-2"
       opacity="1"
       fill-rule="evenodd"
       d="M0,222 L159.5,222 C160.879787561235,222 162,223.120212438765 162,224.5 C162,225.879787561235 160.879787561235,227 159.5,227 L0,227 L0,222Z" />
    <path
       id="path-3"
       opacity="1"
       fill-rule="evenodd"
       d="M42.57601643457923,100.89992147745272 C45.598494525682725,100.89992147745272 48.05236325785067,103.35379020962067 48.05236325785067,106.37626830072416 L48.05236325785067,174.42357465418127 C48.05236325785067,177.44605274528476 45.598494525682725,179.89992147745272 42.57601643457923,179.89992147745272 C39.553538343475736,179.89992147745272 37.09966961130779,177.44605274528476 37.09966961130779,174.42357465418127 L37.09966961130779,106.37626830072416 C37.09966961130779,103.35379020962067 39.55353834347573,100.89992147745272 42.57601643457923,100.89992147745272 L42.57601643457923,100.89992147745272Z" />
    <path
       id="path-4"
       opacity="1"
       fill-rule="evenodd"
       d="M86.77888338754475,94.08523563517764 C89.80136147864825,94.08523563517764 92.2552302108162,96.53910436734559 92.2552302108162,99.56158245844908 L92.2552302108162,167.60888881190618 C92.2552302108162,170.63136690300968 89.80136147864825,173.08523563517764 86.77888338754475,173.08523563517764 C83.75640529644126,173.08523563517764 81.30253656427331,170.63136690300968 81.30253656427331,167.60888881190618 L81.30253656427331,99.56158245844908 C81.30253656427331,96.53910436734559 83.75640529644126,94.08523563517764 86.77888338754475,94.08523563517764 L86.77888338754475,94.08523563517764Z" />
    <path
       id="path-5"
       opacity="1"
       fill-rule="evenodd"
       d="M124.6558783600564,83.49087944643975 C127.6783564511599,83.49087944643975 130.13222518332785,85.9447481786077 130.13222518332785,88.96722626971119 L130.13222518332785,157.0145326231683 C130.13222518332785,160.0370107142718 127.6783564511599,162.49087944643975 124.6558783600564,162.49087944643975 C121.63340026895291,162.49087944643975 119.17953153678496,160.0370107142718 119.17953153678496,157.0145326231683 L119.17953153678496,88.96722626971119 C119.17953153678496,85.9447481786077 121.63340026895291,83.49087944643975 124.6558783600564,83.49087944643975 L124.6558783600564,83.49087944643975Z" />
  </defs>
  <g
     inkscape:groupmode="layer"
     id="layer1"
     inkscape:label="Layer 1">
    <rect
       style="opacity:0.98000004;fill:#f2f2f2;fill-opacity:1;fill-rule:nonzero;stroke:#ffffff;stroke-width:0;stroke-linecap:square;stroke-linejoin:bevel;stroke-miterlimit:4;stroke-dasharray:none;stroke-opacity:1;paint-order:markers stroke fill"
       id="rect1063"
       width="161.19337"
       height="2.9999998"
       x="0.80662489"
       y="148.33334" />
    <rect
       style="opacity:0.98000004;fill:#f2f2f2;fill-opacity:1;fill-rule:nonzero;stroke:#ffffff;stroke-width:0;stroke-linecap:square;stroke-linejoin:bevel;stroke-miterlimit:4;stroke-dasharray:none;stroke-opacity:1;paint-order:markers stroke fill"
       id="rect1063-5"
       width="161.19337"
       height="2.9999998"
       x="0.80662489"
       y="72.666801" />
    <rect
       style="opacity:0.98000004;fill:#f2f2f2;fill-opacity:1;fill-rule:nonzero;stroke:#ffffff;stroke-width:0;stroke-linecap:square;stroke-linejoin:bevel;stroke-miterlimit:4;stroke-dasharray:none;stroke-opacity:1;paint-order:markers stroke fill"
       id="rect1056"
       width="2.9999998"
       height="221.72592"
       x="108"
       y="1.7003527" />
    <rect
       style="opacity:0.98000004;fill:#f2f2f2;fill-opacity:1;fill-rule:nonzero;stroke:#ffffff;stroke-width:0;stroke-linecap:square;stroke-linejoin:bevel;stroke-miterlimit:4;stroke-dasharray:none;stroke-opacity:1;paint-order:markers stroke fill"
       id="rect1054"
       width="2.9999988"
       height="225.467"
       x="54"
       y="5e-07" />
  </g>
  <g
     id="g4599">
    <g
       opacity="1"
       id="g4581">
      <use
         xlink:href="#path-1"
         fill="rgb(0,0,0)"
         fill-opacity="1"
         id="use4579" />
    </g>
    <g
       opacity="1"
       id="g4585">
      <use
         xlink:href="#path-2"
         fill="rgb(0,0,0)"
         fill-opacity="1"
         id="use4583" />
    </g>
    <g
       transform="matrix(1.1958674,0.52524525,-0.52524525,1.1958674,56.595419,-50.032647)"
       id="g4589"
       style="opacity:1">
      <use
         xlink:href="#path-3"
         id="use4587"
         style="fill:#2cc831;fill-opacity:1"
         x="0"
         y="0"
         width="100%"
         height="100%" />
    </g>
    <g
       transform="matrix(-1.0386035,0.72632291,-0.72632291,-1.0386035,265.36302,211.16822)"
       id="g4593"
       style="opacity:1">
      <use
         xlink:href="#path-4"
         id="use4591"
         style="fill:#2cc831;fill-opacity:1"
         x="0"
         y="0"
         width="100%"
         height="100%" />
    </g>
    <g
       transform="matrix(1.2298221,0.60756957,-0.44761882,1.669283,20.466009,-170.12532)"
       id="g4597"
       style="opacity:1;fill:#2cc831;fill-opacity:1">
      <use
         xlink:href="#path-5"
         id="use4595"
         style="fill:#2cc831;fill-opacity:1"
         x="0"
         y="0"
         width="100%"
         height="100%" />
    </g>
    <path
       inkscape:connector-curvature="0"
       id="path919"
       d="m 151.9388,63.811364 a 2.9567643,3.4360181 13.559921 0 1 -3.74379,4.359155 l -16.82311,-4.324211 -16.82327,-4.32387 a 2.9567643,3.4360181 13.559921 0 1 -1.21644,-5.634057 L 126.0297,39.103734 138.72724,24.319028 a 2.9567643,3.4360181 13.559921 0 1 4.96018,1.27491 l 4.12569,19.108749 z"
       inkscape:transform-center-y="-5.1286249"
       inkscape:transform-center-x="2.5003502"
       style="opacity:0.98000004;fill:#2cc831;fill-opacity:1;fill-rule:nonzero;stroke:#ffffff;stroke-width:0;stroke-linecap:square;stroke-linejoin:bevel;stroke-miterlimit:4;stroke-dasharray:none;stroke-opacity:1;paint-order:markers stroke fill" />
  </g>
</svg>
