<?xml version="1.0" encoding="UTF-8" standalone="no"?>
<svg
   xmlns:dc="http://purl.org/dc/elements/1.1/"
   xmlns:cc="http://creativecommons.org/ns#"
   xmlns:rdf="http://www.w3.org/1999/02/22-rdf-syntax-ns#"
   xmlns:svg="http://www.w3.org/2000/svg"
   xmlns="http://www.w3.org/2000/svg"
   viewBox="0 0 716.65228 199.67795"
   height="199.67795"
   width="716.65228"
   xml:space="preserve"
   id="svg835"
   version="1.1"><metadata
     id="metadata841"><rdf:RDF><cc:Work
         rdf:about=""><dc:format>image/svg+xml</dc:format><dc:type
           rdf:resource="http://purl.org/dc/dcmitype/StillImage" /><dc:title></dc:title></cc:Work></rdf:RDF></metadata><defs
     id="defs839"><clipPath
       id="clipPath861"
       clipPathUnits="userSpaceOnUse"><path
         id="path859"
         d="M 0,612 H 792 V 0 H 0 Z" /></clipPath></defs><g
     transform="matrix(1.3333333,0,0,-1.3333333,-175.41561,540.25421)"
     id="g843"><path
       id="path845"
       style="fill:#1ed662;fill-opacity:1;fill-rule:nonzero;stroke:none;stroke-width:0.40772825"
       d="M 131.56171,255.43221 H 669.05095 V 405.19067 H 131.56171 Z" /><g
       transform="translate(-10.4749)"
       id="g1442"><g
         transform="translate(2.1362349)"
         id="g1477"><g
           transform="translate(19.943328,1.1030711)"
           id="g855"
           style="stroke:#ffffff;stroke-width:3.75;stroke-miterlimit:4;stroke-dasharray:none;stroke-opacity:1"><g
             clip-path="url(#clipPath861)"
             id="g857"
             style="stroke:#ffffff;stroke-width:3.75;stroke-miterlimit:4;stroke-dasharray:none;stroke-opacity:1"><g
               transform="translate(639.5996,316.3784)"
               id="g863"
               style="stroke:#ffffff;stroke-width:3.75;stroke-miterlimit:4;stroke-dasharray:none;stroke-opacity:1"><path
                 id="path865"
                 style="fill:#ffffff;fill-opacity:1;fill-rule:nonzero;stroke:#ffffff;stroke-width:3.75;stroke-miterlimit:4;stroke-dasharray:none;stroke-opacity:1"
                 d="m 0,0 c -3.855,-3.915 -10.106,-3.915 -13.962,-0.001 l -53.517,54.334 c -3.854,3.913 -3.854,10.26 0,14.174 l 5.526,5.609 c 3.855,3.915 10.106,3.915 13.963,0 L 5.526,19.784 c 3.856,-3.915 3.854,-10.26 0,-14.175 z" /></g><g
               transform="translate(645.126,336.4277)"
               id="g867"
               style="stroke:#ffffff;stroke-width:3.75;stroke-miterlimit:4;stroke-dasharray:none;stroke-opacity:1"><path
                 id="path869"
                 style="fill:#ffffff;fill-opacity:1;fill-rule:nonzero;stroke:#ffffff;stroke-width:3.75;stroke-miterlimit:4;stroke-dasharray:none;stroke-opacity:1"
                 d="m 0,0 c 3.854,-3.914 3.854,-10.26 0,-14.174 l -53.518,-54.332 c -3.855,-3.914 -10.106,-3.914 -13.962,0 l -5.525,5.608 c -3.854,3.914 -3.854,10.261 0,14.175 L -19.488,5.61 c 3.855,3.914 10.106,3.914 13.962,0 z" /></g><g
               transform="translate(638.3135,332.6523)"
               id="g871"
               style="stroke:#ffffff;stroke-width:3.75;stroke-miterlimit:4;stroke-dasharray:none;stroke-opacity:1"><path
                 id="path873"
                 style="fill:#1ed662;fill-opacity:1;fill-rule:nonzero;stroke:#ffffff;stroke-width:3.75;stroke-miterlimit:4;stroke-dasharray:none;stroke-opacity:1"
                 d="m 0,0 c 1.497,-1.548 0.051,-5.484 -3.23,-8.791 l -45.578,-45.897 c -3.282,-3.303 -7.159,-4.73 -8.66,-3.182 l -2.145,2.221 c -1.5,1.547 -0.054,5.484 3.232,8.792 l 45.574,45.894 c 3.284,3.306 7.161,4.731 8.659,3.183 z" /></g><g
               transform="translate(636.1641,325.1943)"
               id="g875"
               style="stroke:#ffffff;stroke-width:3.75;stroke-miterlimit:4;stroke-dasharray:none;stroke-opacity:1"><path
                 id="path877"
                 style="fill:#1ed662;fill-opacity:1;fill-rule:nonzero;stroke:#ffffff;stroke-width:3.75;stroke-linejoin:bevel;stroke-miterlimit:4;stroke-dasharray:none;stroke-opacity:1"
                 d="M -9.0045953,3.5246335 -54.783,48.903 c -3.309,3.289 -4.741,7.171 -3.194,8.672 l 2.22,2.145 c 1.55,1.501 5.492,0.048 8.804,-3.242 L -0.975,10.819 C 2.338,7.529 7.1508725,6.5714516 2.221,2.148 l -5.4625255,-5.673159" /></g><g
               transform="translate(633.0156,321.8579)"
               id="g879"
               style="stroke:#ffffff;stroke-width:3.75;stroke-miterlimit:4;stroke-dasharray:none;stroke-opacity:1"><path
                 id="path881"
                 style="fill:#1ed662;fill-opacity:1;fill-rule:nonzero;stroke:#ffffff;stroke-width:3.75;stroke-miterlimit:4;stroke-dasharray:none;stroke-opacity:1"
                 d="M 2.607,13.713 8.161,8.162" /></g></g></g><g
           id="text1446"
           style="font-style:normal;font-variant:normal;font-weight:normal;font-stretch:normal;font-size:120px;line-height:1.25;font-family:Lato;-inkscape-font-specification:'Lato, Normal';font-variant-ligatures:normal;font-variant-caps:normal;font-variant-numeric:normal;font-feature-settings:normal;text-align:start;letter-spacing:0px;word-spacing:0px;writing-mode:lr-tb;text-anchor:start;fill:#ffffff;fill-opacity:1;stroke:none;stroke-width:0.75"
           transform="scale(1,-1)"
           aria-label="WAY"><path
             d="m 378.61832,-321.52144 v 34.2 h -11.58 v -34.2 l -31.5,-51.78 h 10.2 q 1.56,0 2.46,0.78 0.9,0.78 1.56,1.92 l 19.68,33.42 q 1.2,2.1 1.98,3.96 0.84,1.86 1.5,3.66 0.66,-1.86 1.44,-3.72 0.78,-1.86 1.98,-3.9 l 19.62,-33.42 q 0.54,-0.96 1.44,-1.8 0.96,-0.9 2.46,-0.9 h 10.32 z m -34.09875,34.2 h -9 q -1.56,0 -2.52,-0.78 -0.96,-0.78 -1.44,-1.98 l -8.04,-20.76 h -38.58 l -8.04,20.76 q -0.42,1.08 -1.44,1.92 -1.02,0.84 -2.52,0.84 h -9 l 34.38,-85.98 h 11.82 z m -56.34,-31.92 h 32.1 l -13.5,-34.98 q -1.32,-3.24 -2.58,-8.1 -0.66,2.46 -1.32,4.56 -0.6,2.04 -1.2,3.6 z m -140.71875,-54.06 h 9.66 q 1.56,0 2.58,0.78 1.02,0.78 1.38,1.98 l 17.76,59.76 q 0.48,1.62 0.84,3.48 0.42,1.86 0.78,3.9 0.42,-2.04 0.84,-3.9 0.42,-1.92 0.96,-3.48 l 20.22,-59.76 q 0.36,-1.02 1.38,-1.86 1.08,-0.9 2.58,-0.9 h 3.36 q 1.56,0 2.52,0.78 1.02,0.78 1.44,1.98 l 20.1,59.76 q 1.08,3.12 1.92,7.14 0.36,-1.98 0.66,-3.78 0.3,-1.8 0.78,-3.36 l 17.82,-59.76 q 0.3,-1.08 1.32,-1.92 1.08,-0.84 2.58,-0.84 h 9.06 l -26.82,85.98 h -10.44 l -21.78,-65.58 q -0.66,-1.86 -1.2,-4.32 -0.3,1.2 -0.6,2.34 -0.24,1.08 -0.54,1.98 l -21.9,65.58 h -10.44 z"
             style="font-style:normal;font-variant:normal;font-weight:normal;font-stretch:normal;font-size:120px;font-family:Lato;-inkscape-font-specification:'Lato, Normal';font-variant-ligatures:normal;font-variant-caps:normal;font-variant-numeric:normal;font-feature-settings:normal;text-align:start;writing-mode:lr-tb;text-anchor:start;fill:#ffffff;fill-opacity:1;stroke-width:0.75"
             id="path1498" /></g><g
           id="text1450"
           style="font-style:normal;font-variant:normal;font-weight:bold;font-stretch:normal;font-size:120px;line-height:1.25;font-family:Lato;-inkscape-font-specification:'Lato, Bold';font-variant-ligatures:normal;font-variant-caps:normal;font-variant-numeric:normal;font-feature-settings:normal;text-align:start;letter-spacing:0px;word-spacing:0px;writing-mode:lr-tb;text-anchor:start;opacity:0.98000004;fill:#ffffff;fill-opacity:1;stroke:none;stroke-width:0.75"
           transform="scale(1,-1)"
           aria-label="WE"><path
             d="m 601.15151,-373.69143 v 12.84 h -38.46 v 24.06 h 30.3 v 12.42 h -30.3 v 24.54 h 38.46 v 12.9 h -54.72 v -86.76 z m -188.385,0 h 13.56 q 2.1,0 3.48,1.02 1.44,0.96 1.92,2.64 l 14.76,51.9 q 0.54,1.92 0.96,4.2 0.48,2.22 0.9,4.74 0.48,-2.52 1.02,-4.74 0.6,-2.28 1.26,-4.2 l 17.04,-51.9 q 0.48,-1.38 1.86,-2.52 1.44,-1.14 3.48,-1.14 h 4.74 q 2.1,0 3.48,1.02 1.38,0.96 1.92,2.64 l 16.92,51.9 q 1.32,3.84 2.28,8.52 0.42,-2.34 0.84,-4.5 0.48,-2.16 0.96,-4.02 l 14.76,-51.9 q 0.42,-1.5 1.86,-2.58 1.44,-1.08 3.48,-1.08 h 12.66 l -26.94,86.76 h -14.58 l -18.96,-59.28 q -0.36,-1.14 -0.78,-2.46 -0.36,-1.32 -0.72,-2.82 -0.36,1.5 -0.78,2.82 -0.36,1.32 -0.72,2.46 l -19.14,59.28 h -14.58 z"
             style="font-style:normal;font-variant:normal;font-weight:bold;font-stretch:normal;font-size:120px;font-family:Lato;-inkscape-font-specification:'Lato, Bold';font-variant-ligatures:normal;font-variant-caps:normal;font-variant-numeric:normal;font-feature-settings:normal;text-align:start;writing-mode:lr-tb;text-anchor:start;fill:#ffffff;fill-opacity:1;stroke-width:0.75"
             id="path1504" /></g></g></g></g></svg>