<?xml version="1.0" encoding="UTF-8" standalone="no"?>
<svg
   xmlns:dc="http://purl.org/dc/elements/1.1/"
   xmlns:cc="http://creativecommons.org/ns#"
   xmlns:rdf="http://www.w3.org/1999/02/22-rdf-syntax-ns#"
   xmlns:svg="http://www.w3.org/2000/svg"
   xmlns="http://www.w3.org/2000/svg"
   xmlns:xlink="http://www.w3.org/1999/xlink"
   xmlns:sodipodi="http://sodipodi.sourceforge.net/DTD/sodipodi-0.dtd"
   xmlns:inkscape="http://www.inkscape.org/namespaces/inkscape"
   viewBox="0 0 287.99999 127.70039"
   version="1.1"
   height="227.13643"
   width="161.91904"
   id="svg24"
   sodipodi:docname="ss.svg"
   inkscape:version="0.92.4 (5da689c313, 2019-01-14)">
  <metadata
     id="metadata28">
    <rdf:RDF>
      <cc:Work
         rdf:about="">
        <dc:format>image/svg+xml</dc:format>
        <dc:type
           rdf:resource="http://purl.org/dc/dcmitype/StillImage" />
        <dc:title />
      </cc:Work>
    </rdf:RDF>
  </metadata>
  <sodipodi:namedview
     pagecolor="#ffffff"
     bordercolor="#666666"
     borderopacity="1"
     objecttolerance="10"
     gridtolerance="10"
     guidetolerance="10"
     inkscape:pageopacity="0"
     inkscape:pageshadow="2"
     inkscape:window-width="1920"
     inkscape:window-height="1017"
     id="namedview26"
     showgrid="false"
     fit-margin-top="0"
     fit-margin-left="0"
     fit-margin-right="0"
     fit-margin-bottom="0"
     inkscape:zoom="2.4227885"
     inkscape:cx="-38.276305"
     inkscape:cy="75.767682"
     inkscape:window-x="-8"
     inkscape:window-y="-8"
     inkscape:window-maximized="1"
     inkscape:current-layer="svg24" />
  <defs
     id="defs12">
    <ellipse
       id="ellipse-1"
       rx="96.5"
       ry="100"
       cx="187.5"
       cy="238"
       style="opacity:1" />
    <path
       id="path-2"
       d="m 53,469 h 272 c 4.41532,0 8,3.58468 8,8 v 57 c 0,4.41532 -3.58468,8 -8,8 H 53 c -4.41532,0 -8,-3.58468 -8,-8 v -57 c 0,-4.41532 3.58468,-8 8,-8 z"
       inkscape:connector-curvature="0"
       style="opacity:1;fill-rule:evenodd" />
  </defs>
  <g
     id="g22"
     transform="translate(-45.000005,-276.14981)">
    <g
       id="g16"
       style="opacity:1">
      <use
         xlink:href="#ellipse-1"
         id="use14"
         style="fill:#2cc831;fill-opacity:1"
         x="0"
         y="0"
         width="100%"
         height="100%" />
    </g>
    <g
       id="g20"
       style="opacity:1">
      <use
         xlink:href="#path-2"
         id="use18"
         style="fill:#2cc831;fill-opacity:1"
         x="0"
         y="0"
         width="100%"
         height="100%" />
    </g>
  </g>
  <g
     aria-label="+2 W"
     style="font-style:normal;font-variant:normal;font-weight:normal;font-stretch:normal;font-size:59.28888702px;line-height:1.25;font-family:Lato;-inkscape-font-specification:'Lato, Normal';font-variant-ligatures:normal;font-variant-caps:normal;font-variant-numeric:normal;font-feature-settings:normal;text-align:start;letter-spacing:0px;word-spacing:0px;writing-mode:lr-tb;text-anchor:start;fill:#ffffff;fill-opacity:1;stroke:none;stroke-width:1.77866673"
     id="text32">
    <path
       id="path863"
       style="font-style:normal;font-variant:normal;font-weight:normal;font-stretch:normal;font-size:59.28888702px;font-family:Lato;-inkscape-font-specification:'Lato, Normal';font-variant-ligatures:normal;font-variant-caps:normal;font-variant-numeric:normal;font-feature-settings:normal;text-align:start;writing-mode:lr-tb;text-anchor:start;fill:#ffffff;fill-opacity:1;stroke-width:1.77866673"
       d="m 153.07165,-57.539358 h 4.77276 q 0.77075,0 1.27471,0.385378 0.50396,0.385378 0.68182,0.978267 l 8.77476,29.525865 q 0.23715,0.8004 0.41502,1.719378 0.20751,0.918978 0.38538,1.926889 0.20751,-1.007911 0.41502,-1.926889 0.20751,-0.948622 0.47431,-1.719378 l 9.99018,-29.525865 q 0.17787,-0.503956 0.68182,-0.918978 0.5336,-0.444667 1.27471,-0.444667 h 1.66009 q 0.77076,0 1.24507,0.385378 0.50395,0.385378 0.71146,0.978267 l 9.93089,29.525865 q 0.5336,1.541511 0.94862,3.527689 0.17787,-0.978267 0.32609,-1.8676 0.14823,-0.889333 0.38538,-1.660089 l 8.8044,-29.525865 q 0.14822,-0.5336 0.65218,-0.948623 0.5336,-0.415022 1.27471,-0.415022 h 4.47631 l -13.25107,42.480488 h -5.15813 l -10.76093,-32.401377 q -0.32609,-0.918978 -0.59289,-2.1344 -0.14822,0.592889 -0.29645,1.156133 -0.11857,0.5336 -0.2668,0.978267 l -10.82022,32.401377 h -5.15813 z m -28.45495,-0.474311 q 2.69764,0 5.03955,0.8004 2.34192,0.8004 4.03165,2.341911 1.71938,1.511867 2.69764,3.705555 0.97827,2.193689 0.97827,4.980267 0,2.371555 -0.71147,4.387378 -0.71146,2.015822 -1.92689,3.883422 -1.21542,1.837955 -2.81622,3.586977 -1.57115,1.719378 -3.34982,3.527689 l -11.17596,11.442755 q 1.18578,-0.326089 2.4012,-0.503955 1.21543,-0.207511 2.34192,-0.207511 h 14.22933 q 0.85969,0 1.36364,0.503955 0.50396,0.503956 0.50396,1.304356 v 3.2016 h -28.34009 v -1.808311 q 0,-0.563245 0.20751,-1.156134 0.23716,-0.592889 0.74111,-1.096844 l 13.6068,-13.666089 q 1.68974,-1.719377 3.08302,-3.290533 1.39329,-1.6008 2.37156,-3.2016 1.00791,-1.6008 1.54151,-3.231244 0.5336,-1.660089 0.5336,-3.527689 0,-1.8676 -0.59289,-3.260889 -0.59289,-1.422933 -1.63044,-2.341911 -1.03756,-0.918977 -2.43085,-1.363644 -1.39329,-0.474311 -2.99409,-0.474311 -1.6008,0 -2.96444,0.474311 -1.36364,0.474311 -2.43084,1.334 -1.03756,0.830044 -1.77867,1.986178 -0.71147,1.156133 -1.00791,2.549422 -0.23716,0.859689 -0.71147,1.245066 -0.47431,0.385378 -1.24507,0.385378 -0.14822,0 -0.32608,0 -0.14823,-0.02964 -0.35574,-0.05929 l -2.75693,-0.474311 q 0.41502,-2.905155 1.6008,-5.128489 1.18578,-2.252977 2.99409,-3.764844 1.83795,-1.511866 4.17986,-2.282622 2.37156,-0.8004 5.09885,-0.800399 z m -32.909964,8.389378 v 12.658177 h 12.065284 v 4.002 H 91.706736 v 12.747111 h -4.328089 v -12.747111 h -12.006 v -4.002 h 12.006 v -12.658177 z" />
  </g>
  <g
     aria-label="GREAT!"
     style="font-style:normal;font-variant:normal;font-weight:normal;font-stretch:normal;font-size:42.68799973px;line-height:1.25;font-family:Lato;-inkscape-font-specification:'Lato, Normal';font-variant-ligatures:normal;font-variant-caps:normal;font-variant-numeric:normal;font-feature-settings:normal;text-align:start;letter-spacing:0px;word-spacing:0px;writing-mode:lr-tb;text-anchor:start;fill:#ffffff;fill-opacity:1;stroke:none;stroke-width:1.77866673"
     id="text36">
    <path
       id="path855"
       style="font-style:normal;font-variant:normal;font-weight:normal;font-stretch:normal;font-size:42.68799973px;font-family:Lato;-inkscape-font-specification:'Lato, Normal';font-variant-ligatures:normal;font-variant-caps:normal;font-variant-numeric:normal;font-feature-settings:normal;text-align:start;writing-mode:lr-tb;text-anchor:start;fill:#ffffff;fill-opacity:1;stroke-width:1.77866673"
       d="m 214.72568,213.85535 v 12.20877 q 0,0.96048 -0.0427,1.87827 -0.0213,0.91779 -0.0854,1.85693 -0.064,0.91779 -0.17076,1.89961 -0.0854,0.96048 -0.21344,2.07037 h -2.58262 q -0.12806,-1.10989 -0.23478,-2.07037 -0.0854,-0.98182 -0.14941,-1.89961 -0.064,-0.93914 -0.10672,-1.85693 -0.0214,-0.91779 -0.0214,-1.87827 v -12.20877 z m -4.52493,28.23811 q 0,-0.55494 0.1921,-1.04586 0.21344,-0.49091 0.55494,-0.85376 0.36285,-0.36284 0.85376,-0.57628 0.49091,-0.21344 1.04586,-0.21344 0.55494,0 1.04585,0.21344 0.49092,0.21344 0.85376,0.57628 0.36285,0.36285 0.55495,0.85376 0.21344,0.49092 0.21344,1.04586 0,0.57629 -0.21344,1.0672 -0.1921,0.46957 -0.55495,0.83242 -0.36284,0.36284 -0.85376,0.55494 -0.49091,0.21344 -1.04585,0.21344 -0.55495,0 -1.04586,-0.21344 -0.49091,-0.1921 -0.85376,-0.55494 -0.3415,-0.36285 -0.55494,-0.83242 -0.1921,-0.49091 -0.1921,-1.0672 z m -5.28665,-28.23811 v 3.47907 h -9.88227 v 27.10688 h -4.14074 v -27.10688 h -9.92496 v -3.47907 z m -21.84692,30.58595 h -3.2016 q -0.55494,0 -0.89644,-0.27747 -0.34151,-0.27747 -0.51226,-0.70435 l -2.8601,-7.38503 h -13.72419 l -2.86009,7.38503 q -0.14941,0.38419 -0.51226,0.683 -0.36285,0.29882 -0.89645,0.29882 h -3.2016 l 12.23011,-30.58595 h 4.20477 z m -20.04201,-11.35501 h 11.41904 l -4.8024,-12.44355 q -0.46957,-1.15258 -0.91779,-2.88144 -0.23479,0.8751 -0.46957,1.62214 -0.21344,0.7257 -0.42688,1.28064 z m -11.03819,-19.23094 v 3.37235 h -14.68467 v 10.15974 h 11.88861 v 3.24429 h -11.88861 v 10.43722 h 14.68467 v 3.37235 h -18.84675 v -30.58595 z m -41.81422,17.82224 v 12.76371 h -4.1194 v -30.58595 h 8.64432 q 2.90279,0 5.01584,0.59763 2.11306,0.57629 3.47908,1.68618 1.38736,1.10988 2.04902,2.68934 0.66166,1.55811 0.66166,3.50042 0,1.62214 -0.51225,3.03084 -0.51226,1.40871 -1.49408,2.53994 -0.96048,1.10989 -2.36919,1.89962 -1.38736,0.78972 -3.15891,1.19526 0.76839,0.44822 1.36602,1.30198 l 8.92179,12.14474 h -3.67117 q -1.13123,0 -1.66483,-0.8751 l -7.93997,-10.92813 q -0.36285,-0.51226 -0.78973,-0.7257 -0.42688,-0.23478 -1.28064,-0.23478 z m 0,-3.00951 h 4.33283 q 1.81424,0 3.18025,-0.42688 1.38736,-0.44822 2.30516,-1.23795 0.93913,-0.81107 1.4087,-1.92096 0.46957,-1.10989 0.46957,-2.45456 0,-2.73203 -1.81424,-4.11939 -1.7929,-1.38736 -5.35735,-1.38736 h -4.52492 z M 87.916301,241.4318 q 1.237952,0 2.262464,-0.10672 1.045856,-0.12807 1.963648,-0.36285 0.917792,-0.23479 1.728864,-0.55495 0.811072,-0.3415 1.622144,-0.76838 v -6.7447 h -4.738368 q -0.405536,0 -0.661664,-0.23479 -0.234784,-0.23478 -0.234784,-0.57629 v -2.34784 h 9.39136 v 11.7392 q -1.152576,0.83242 -2.411872,1.4514 -1.237952,0.61897 -2.668,1.04585 -1.408704,0.40554 -3.030848,0.59763 -1.622144,0.21344 -3.52176,0.21344 -3.329664,0 -6.104384,-1.13123 -2.77472,-1.15257 -4.781056,-3.2016 -2.006336,-2.07037 -3.137568,-4.95181 -1.109888,-2.88144 -1.109888,-6.33916 0,-3.50042 1.088544,-6.38186 1.109888,-2.88144 3.137568,-4.93046 2.049024,-2.07037 4.930464,-3.2016 2.902784,-1.13124 6.488576,-1.13124 1.81424,0 3.372352,0.27748 1.558112,0.25612 2.88144,0.76838 1.344672,0.49091 2.475904,1.21661 1.131232,0.70435 2.113056,1.6008 l -1.17392,1.87827 q -0.362848,0.57629 -0.939136,0.57629 -0.341504,0 -0.74704,-0.23479 -0.5336,-0.29881 -1.195264,-0.72569 -0.661664,-0.42688 -1.622144,-0.81107 -0.939136,-0.40554 -2.24112,-0.68301 -1.28064,-0.27747 -3.052192,-0.27747 -2.582624,0 -4.674336,0.85376 -2.091712,0.83241 -3.564448,2.41187 -1.472736,1.55811 -2.262464,3.79923 -0.789728,2.21978 -0.789728,4.9945 0,2.90278 0.811072,5.18659 0.832416,2.26246 2.326496,3.84192 1.49408,1.57945 3.543104,2.41187 2.049024,0.83242 4.524928,0.83242 z" />
  </g>
</svg>
