<?xml version="1.0" encoding="UTF-8" standalone="no"?>
<!-- Created with Inkscape (http://www.inkscape.org/) -->

<svg
   xmlns:dc="http://purl.org/dc/elements/1.1/"
   xmlns:cc="http://creativecommons.org/ns#"
   xmlns:rdf="http://www.w3.org/1999/02/22-rdf-syntax-ns#"
   xmlns:svg="http://www.w3.org/2000/svg"
   xmlns="http://www.w3.org/2000/svg"
   xmlns:sodipodi="http://sodipodi.sourceforge.net/DTD/sodipodi-0.dtd"
   xmlns:inkscape="http://www.inkscape.org/namespaces/inkscape"
   version="1.1"
   id="svg1448"
   xml:space="preserve"
   width="150"
   viewBox="0 0 921.6416 219.44157"
   sodipodi:docname="logo.svg"
   inkscape:version="0.92.4 (5da689c313, 2019-01-14)"><metadata
     id="metadata1454"><rdf:RDF><cc:Work
         rdf:about=""><dc:format>image/svg+xml</dc:format><dc:type
           rdf:resource="http://purl.org/dc/dcmitype/StillImage" /><dc:title /></cc:Work></rdf:RDF></metadata><defs
     id="defs1452"><clipPath
       clipPathUnits="userSpaceOnUse"
       id="clipPath1470"><path
         d="M 0,612 H 792 V 0 H 0 Z"
         id="path1468"
         inkscape:connector-curvature="0" /></clipPath></defs><sodipodi:namedview
     pagecolor="#ffffff"
     bordercolor="#666666"
     borderopacity="1"
     objecttolerance="10"
     gridtolerance="10"
     guidetolerance="10"
     inkscape:pageopacity="0"
     inkscape:pageshadow="2"
     inkscape:window-width="1920"
     inkscape:window-height="1017"
     id="namedview1450"
     showgrid="false"
     inkscape:zoom="4.627451"
     inkscape:cx="66.579494"
     inkscape:cy="120.52554"
     inkscape:window-x="-8"
     inkscape:window-y="-8"
     inkscape:window-maximized="1"
     inkscape:current-layer="g2045"
     fit-margin-top="0"
     fit-margin-left="0"
     fit-margin-right="0"
     fit-margin-bottom="0" /><g
     id="g1456"
     inkscape:groupmode="layer"
     inkscape:label="WAYWEwtk"
     transform="matrix(1.3333333,0,0,-1.3333333,-67.179185,517.72079)"><path
       d="M 50.38439,223.70942 H 741.61563 V 388.2906 H 50.38439 Z"
       style="fill:#1ed662;fill-opacity:1;fill-rule:nonzero;stroke:none;stroke-width:0.48472115"
       id="path1458"
       inkscape:connector-curvature="0" /><g
       id="g2045"
       transform="translate(15.165858)"><g
   transform="translate(0,-25.74053)"
   id="g1464"><g
     clip-path="url(#clipPath1470)"
     id="g1466"><g
       transform="translate(638.2686,316.3789)"
       id="g1472"><path
         inkscape:connector-curvature="0"
         id="path1474"
         style="fill:#ffffff;fill-opacity:1;fill-rule:nonzero;stroke:none"
         d="m 0,0 c -4.687,-4.687 -12.284,-4.687 -16.97,-0.001 l -65.054,65.054 c -4.686,4.685 -4.686,12.284 0,16.97 l 6.717,6.717 c 4.687,4.688 12.285,4.687 16.971,0 L 6.718,23.687 c 4.686,-4.687 4.685,-12.284 0,-16.97 z" /></g><g
       transform="translate(644.9863,340.3843)"
       id="g1476"><path
         inkscape:connector-curvature="0"
         id="path1478"
         style="fill:#ffffff;fill-opacity:1;fill-rule:nonzero;stroke:none"
         d="m 0,0 c 4.686,-4.686 4.686,-12.285 0,-16.971 l -65.055,-65.053 c -4.685,-4.685 -12.284,-4.685 -16.97,0 l -6.717,6.717 c -4.686,4.685 -4.686,12.285 0,16.971 l 65.054,65.053 c 4.686,4.686 12.284,4.686 16.97,0 z" /></g></g></g><g
   aria-label="WAYWE"
   transform="scale(1,-1)"
   style="font-style:normal;font-variant:normal;font-weight:normal;font-stretch:normal;font-size:125px;line-height:1.25;font-family:Lato;-inkscape-font-specification:'Lato, Normal';font-variant-ligatures:normal;font-variant-caps:normal;font-variant-numeric:normal;font-feature-settings:normal;text-align:start;letter-spacing:0px;word-spacing:0px;writing-mode:lr-tb;text-anchor:start;fill:#ffffff;fill-opacity:1;stroke:none;stroke-width:0.75"
   id="text2035"><path
     id="path878"
     style="font-style:normal;font-variant:normal;font-weight:normal;font-stretch:normal;font-size:125px;font-family:Lato;-inkscape-font-specification:'Lato, Normal';font-variant-ligatures:normal;font-variant-caps:normal;font-variant-numeric:normal;font-feature-settings:normal;text-align:start;writing-mode:lr-tb;text-anchor:start;fill:#ffffff;fill-opacity:1;stroke-width:0.75"
     d="m 580.69875,-350.78125 v 9.875 h -43 v 29.75 h 34.8125 v 9.5 h -34.8125 v 30.5625 h 43 v 9.875 h -55.1875 v -89.5625 z m -192.6289,0 h 10.0625 q 1.625,0 2.6875,0.8125 1.0625,0.8125 1.4375,2.0625 l 18.5,62.25 q 0.5,1.6875 0.875,3.625 0.4375,1.9375 0.8125,4.0625 0.4375,-2.125 0.875,-4.0625 0.4375,-2 1,-3.625 l 21.0625,-62.25 q 0.375,-1.0625 1.4375,-1.9375 1.125,-0.9375 2.6875,-0.9375 h 3.5 q 1.625,0 2.625,0.8125 1.0625,0.8125 1.5,2.0625 l 20.9375,62.25 q 1.125,3.25 2,7.4375 0.375,-2.0625 0.6875,-3.9375 0.3125,-1.875 0.8125,-3.5 l 18.5625,-62.25 q 0.3125,-1.125 1.375,-2 1.125,-0.875 2.6875,-0.875 h 9.4375 l -27.9375,89.5625 h -10.875 l -22.6875,-68.3125 q -0.6875,-1.9375 -1.25,-4.5 -0.3125,1.25 -0.625,2.4375 -0.25,1.125 -0.5625,2.0625 l -22.8125,68.3125 h -10.875 z m -34.11328,53.9375 v 35.625 h -12.0625 v -35.625 l -32.8125,-53.9375 h 10.625 q 1.625,0 2.5625,0.8125 0.9375,0.8125 1.625,2 l 20.5,34.8125 q 1.25,2.1875 2.0625,4.125 0.875,1.9375 1.5625,3.8125 0.6875,-1.9375 1.5,-3.875 0.8125,-1.9375 2.0625,-4.0625 l 20.4375,-34.8125 q 0.5625,-1 1.5,-1.875 1,-0.9375 2.5625,-0.9375 h 10.75 z m -35.51954,35.625 h -9.375 q -1.625,0 -2.625,-0.8125 -1,-0.8125 -1.5,-2.0625 l -8.375,-21.625 h -40.1875 l -8.375,21.625 q -0.4375,1.125 -1.5,2 -1.0625,0.875 -2.625,0.875 h -9.375 l 35.8125,-89.5625 h 12.3125 z m -58.6875,-33.25 h 33.4375 l -14.0625,-36.4375 q -1.375,-3.375 -2.6875,-8.4375 -0.6875,2.5625 -1.375,4.75 -0.625,2.125 -1.25,3.75 z M 113.1675,-350.78125 H 123.23 q 1.625,0 2.6875,0.8125 1.0625,0.8125 1.4375,2.0625 l 18.5,62.25 q 0.5,1.6875 0.875,3.625 0.4375,1.9375 0.8125,4.0625 0.4375,-2.125 0.875,-4.0625 0.4375,-2 1,-3.625 l 21.0625,-62.25 q 0.375,-1.0625 1.4375,-1.9375 1.125,-0.9375 2.6875,-0.9375 h 3.5 q 1.625,0 2.625,0.8125 1.0625,0.8125 1.5,2.0625 l 20.9375,62.25 q 1.125,3.25 2,7.4375 0.375,-2.0625 0.6875,-3.9375 0.3125,-1.875 0.8125,-3.5 l 18.5625,-62.25 q 0.3125,-1.125 1.375,-2 1.125,-0.875 2.6875,-0.875 h 9.4375 l -27.9375,89.5625 h -10.875 l -22.6875,-68.3125 q -0.6875,-1.9375 -1.25,-4.5 -0.3125,1.25 -0.625,2.4375 -0.25,1.125 -0.5625,2.0625 l -22.8125,68.3125 h -10.875 z" /></g>
</g></g></svg>