<?xml version="1.0" encoding="UTF-8" standalone="no"?>
<svg
   xmlns:dc="http://purl.org/dc/elements/1.1/"
   xmlns:cc="http://creativecommons.org/ns#"
   xmlns:rdf="http://www.w3.org/1999/02/22-rdf-syntax-ns#"
   xmlns:svg="http://www.w3.org/2000/svg"
   xmlns="http://www.w3.org/2000/svg"
   xmlns:sodipodi="http://sodipodi.sourceforge.net/DTD/sodipodi-0.dtd"
   xmlns:inkscape="http://www.inkscape.org/namespaces/inkscape"
   id="svg4594"
   version="1.0"
   viewBox="0 0 575.48328 273.4856"
   sodipodi:docname="triangle-test.svg"
   inkscape:version="0.92.4 (5da689c313, 2019-01-14)">
  <sodipodi:namedview
     pagecolor="#ffffff"
     bordercolor="#666666"
     borderopacity="1"
     objecttolerance="10"
     gridtolerance="10"
     guidetolerance="10"
     inkscape:pageopacity="0"
     inkscape:pageshadow="2"
     inkscape:window-width="724"
     inkscape:window-height="480"
     id="namedview839"
     showgrid="false"
     inkscape:zoom="2.4883434"
     inkscape:cx="287.74164"
     inkscape:cy="136.7428"
     inkscape:window-x="0"
     inkscape:window-y="0"
     inkscape:window-maximized="1"
     inkscape:current-layer="svg4594" />
  <metadata
     id="metadata2885">
    <rdf:RDF>
      <cc:Work
         rdf:about="">
        <dc:format>image/svg+xml</dc:format>
        <dc:type
           rdf:resource="http://purl.org/dc/dcmitype/StillImage" />
        <dc:title></dc:title>
      </cc:Work>
    </rdf:RDF>
  </metadata>
  <defs
     id="defs2883" />
  <path
     style="opacity:1;fill:#ffffff;fill-opacity:1;stroke:#000000;stroke-width:1.12629921;stroke-linecap:round;stroke-linejoin:round;stroke-miterlimit:4;stroke-dasharray:none;stroke-dashoffset:1.12479997;stroke-opacity:0.00849861"
     d="M 194.87819,49.326299 222.04231,49.193769 296.80988,179.28334 403.87342,0.86733962 417.17859,25.134949 297.17424,228.6758 Z"
     id="path2909" />
  <path
     style="opacity:1;fill:#f5f5f5;fill-opacity:1;stroke:#000000;stroke-width:1.12683928;stroke-linecap:round;stroke-linejoin:bevel;stroke-miterlimit:4;stroke-dasharray:none;stroke-dashoffset:1.12479997;stroke-opacity:0.00849861"
     d="m 153.07196,24.282569 12.58826,-23.71914938 238.30696,0.1639 L 296.82433,179.26742 283.37886,155.86658 360.96017,24.426949 Z"
     id="path2911" />
  <path
     style="opacity:1;fill:#cccccc;fill-opacity:1;stroke:#000000;stroke-width:1.12683928;stroke-linecap:round;stroke-linejoin:round;stroke-miterlimit:4;stroke-dasharray:none;stroke-dashoffset:1.12479997;stroke-opacity:0.00849861"
     d="M 268.01586,228.95076 153.08656,24.321939 360.99174,24.381849 346.27426,49.247339 194.75782,49.226619 297.29211,228.67208 Z"
     id="path2899" />
  <text
     xml:space="preserve"
     style="font-style:normal;font-weight:normal;font-size:40px;line-height:1.25;font-family:sans-serif;letter-spacing:0px;word-spacing:0px;fill:#000000;fill-opacity:1;stroke:none"
     x="291.21075"
     y="98.234703"
     id="text1004"><tspan
       id="tspan1002"
       x="291.21075"
       y="134.72792" /></text>
  <g
     id="text1091"
     style="font-style:normal;font-variant:normal;font-weight:normal;font-stretch:normal;font-size:26.66666603px;line-height:1.25;font-family:Lato;-inkscape-font-specification:'Lato, Normal';font-variant-ligatures:normal;font-variant-caps:normal;font-variant-numeric:normal;font-feature-settings:normal;text-align:start;letter-spacing:0px;word-spacing:0px;writing-mode:lr-tb;text-anchor:start;fill:#3d3d3d;fill-opacity:1;stroke:none"
     transform="skewX(-20)"
     aria-label="Better for">
    <path
       d="M 338.82152,22.559862 V 9.0531958 h 1.36 q 0.38667,0 0.53333,0.1466667 0.14667,0.1466666 0.2,0.5066666 l 0.16,2.1066669 q 0.69334,-1.413334 1.70667,-2.2000002 1.02667,-0.8 2.4,-0.8 0.56,0 1.01333,0.1333333 0.45334,0.12 0.84,0.3466667 l -0.30666,1.7733332 q -0.0933,0.333333 -0.41334,0.333333 -0.18666,0 -0.57333,-0.12 -0.38667,-0.133333 -1.08,-0.133333 -1.24,0 -2.08,0.72 -0.82667,0.72 -1.38667,2.093333 v 8.6 z M 329.44444,8.8398625 q 1.48,0 2.66666,0.4933333 1.2,0.4933333 2.02667,1.4000002 0.84,0.906666 1.28,2.2 0.45333,1.28 0.45333,2.866666 0,1.6 -0.45333,2.88 -0.44,1.28 -1.28,2.186667 -0.82667,0.906666 -2.02667,1.4 -1.18666,0.48 -2.66666,0.48 -1.48,0 -2.68,-0.48 -1.18667,-0.493334 -2.02667,-1.4 -0.84,-0.906667 -1.29333,-2.186667 -0.45333,-1.28 -0.45333,-2.88 0,-1.586666 0.45333,-2.866666 0.45333,-1.293334 1.29333,-2.2 0.84,-0.9066669 2.02667,-1.4000002 1.2,-0.4933333 2.68,-0.4933333 z m 0,12.0533335 q 2,0 2.98666,-1.333334 0.98667,-1.346666 0.98667,-3.746666 0,-2.413334 -0.98667,-3.76 -0.98666,-1.346667 -2.98666,-1.346667 -1.01334,0 -1.76,0.346667 -0.74667,0.346666 -1.25334,1 -0.49333,0.653333 -0.74666,1.613333 -0.24,0.946667 -0.24,2.146667 0,1.2 0.24,2.146666 0.25333,0.946667 0.74666,1.6 0.50667,0.64 1.25334,0.986667 0.74666,0.346667 1.76,0.346667 z m -13.94375,1.666666 v -11.48 l -1.49333,-0.173333 q -0.28,-0.06667 -0.46667,-0.2 -0.17333,-0.146667 -0.17333,-0.413333 V 9.3198625 h 2.13333 V 8.0131958 q 0,-1.16 0.32,-2.0533333 0.33333,-0.9066666 0.93333,-1.5199999 0.61334,-0.6266667 1.46667,-0.9466667 0.85333,-0.32 1.92,-0.32 0.90667,0 1.68,0.2666667 l -0.0533,1.1866666 q -0.0133,0.2666667 -0.22667,0.32 -0.21333,0.053333 -0.6,0.053333 h -0.41333 q -0.61334,0 -1.12,0.16 -0.49334,0.1599999 -0.85334,0.5199999 -0.36,0.36 -0.56,0.9466667 -0.18666,0.5866666 -0.18666,1.4533333 v 1.24 h 3.90666 v 1.7199999 h -3.82666 v 11.52 z m -16.41875,0 V 9.0531958 h 1.36 q 0.38666,0 0.53333,0.1466667 0.14667,0.1466666 0.2,0.5066666 l 0.16,2.1066669 q 0.69333,-1.413334 1.70667,-2.2000002 1.02666,-0.8 2.4,-0.8 0.56,0 1.01333,0.1333333 0.45333,0.12 0.84,0.3466667 l -0.30667,1.7733332 q -0.0933,0.333333 -0.41333,0.333333 -0.18667,0 -0.57333,-0.12 -0.38667,-0.133333 -1.08,-0.133333 -1.24,0 -2.08,0.72 -0.82667,0.72 -1.38667,2.093333 v 8.6 z M 290.47027,8.8398625 q 1.21333,0 2.24,0.4133333 1.02667,0.4 1.77333,1.1733332 0.74667,0.76 1.16,1.893333 0.42667,1.12 0.42667,2.56 0,0.56 -0.12,0.746667 -0.12,0.186667 -0.45333,0.186667 h -8.98667 q 0.0267,1.28 0.34667,2.226666 0.32,0.946667 0.88,1.586667 0.56,0.626667 1.33333,0.946667 0.77333,0.306666 1.73333,0.306666 0.89334,0 1.53334,-0.2 0.65333,-0.213333 1.12,-0.453333 0.46666,-0.24 0.77333,-0.44 0.32,-0.213333 0.54667,-0.213333 0.29333,0 0.45333,0.226666 l 0.66667,0.866667 q -0.44,0.533333 -1.05334,0.933333 -0.61333,0.386667 -1.32,0.64 -0.69333,0.253333 -1.44,0.373333 -0.74666,0.133334 -1.48,0.133334 -1.4,0 -2.58666,-0.466667 -1.17334,-0.48 -2.04,-1.386666 -0.85334,-0.92 -1.33334,-2.266667 -0.48,-1.346667 -0.48,-3.093333 0,-1.413334 0.42667,-2.64 0.44,-1.226667 1.25333,-2.12 0.81334,-0.9066669 1.98667,-1.4133335 1.17333,-0.52 2.64,-0.52 z m 0.0533,1.7466665 q -1.72,0 -2.70666,1 -0.98667,0.986667 -1.22667,2.746667 h 7.34667 q 0,-0.826667 -0.22667,-1.506667 -0.22667,-0.693333 -0.66667,-1.186667 -0.44,-0.506666 -1.08,-0.773333 -0.62666,-0.28 -1.44,-0.28 z m -11.25455,12.186666 q -1.6,0 -2.46666,-0.893333 -0.85334,-0.893333 -0.85334,-2.573333 v -8.266667 h -1.62666 q -0.21334,0 -0.36,-0.12 -0.14667,-0.133333 -0.14667,-0.4 V 9.5731958 l 2.21333,-0.28 0.54667,-4.1733332 q 0.0267,-0.2 0.17333,-0.32 0.14667,-0.1333334 0.37334,-0.1333334 h 1.2 v 4.6533333 h 3.86666 v 1.7199995 h -3.86666 v 8.106667 q 0,0.853333 0.41333,1.266667 0.41333,0.413333 1.06667,0.413333 0.37333,0 0.64,-0.09333 0.28,-0.106667 0.48,-0.226667 0.2,-0.12 0.33333,-0.213333 0.14667,-0.106667 0.25333,-0.106667 0.18667,0 0.33334,0.226667 l 0.69333,1.133333 q -0.61333,0.573333 -1.48,0.906666 -0.86667,0.32 -1.78667,0.32 z m -9.94792,0 q -1.6,0 -2.46666,-0.893333 -0.85334,-0.893333 -0.85334,-2.573333 v -8.266667 h -1.62666 q -0.21333,0 -0.36,-0.12 -0.14667,-0.133333 -0.14667,-0.4 V 9.5731958 l 2.21333,-0.28 0.54667,-4.1733332 q 0.0267,-0.2 0.17333,-0.32 0.14667,-0.1333334 0.37334,-0.1333334 h 1.2 v 4.6533333 h 3.86666 v 1.7199995 h -3.86666 v 8.106667 q 0,0.853333 0.41333,1.266667 0.41333,0.413333 1.06667,0.413333 0.37333,0 0.64,-0.09333 0.28,-0.106667 0.48,-0.226667 0.2,-0.12 0.33333,-0.213333 0.14667,-0.106667 0.25333,-0.106667 0.18667,0 0.33334,0.226667 l 0.69333,1.133333 q -0.61333,0.573333 -1.48,0.906666 -0.86667,0.32 -1.78667,0.32 z M 256.61611,8.8398625 q 1.21333,0 2.24,0.4133333 1.02666,0.4 1.77333,1.1733332 0.74667,0.76 1.16,1.893333 0.42667,1.12 0.42667,2.56 0,0.56 -0.12,0.746667 -0.12,0.186667 -0.45334,0.186667 h -8.98666 q 0.0267,1.28 0.34666,2.226666 0.32,0.946667 0.88,1.586667 0.56,0.626667 1.33334,0.946667 0.77333,0.306666 1.73333,0.306666 0.89333,0 1.53333,-0.2 0.65334,-0.213333 1.12,-0.453333 0.46667,-0.24 0.77334,-0.44 0.32,-0.213333 0.54666,-0.213333 0.29334,0 0.45334,0.226666 l 0.66666,0.866667 q -0.44,0.533333 -1.05333,0.933333 -0.61333,0.386667 -1.32,0.64 -0.69333,0.253333 -1.44,0.373333 -0.74667,0.133334 -1.48,0.133334 -1.4,0 -2.58667,-0.466667 -1.17333,-0.48 -2.04,-1.386666 -0.85333,-0.92 -1.33333,-2.266667 -0.48,-1.346667 -0.48,-3.093333 0,-1.413334 0.42667,-2.64 0.44,-1.226667 1.25333,-2.12 0.81333,-0.9066669 1.98667,-1.4133335 1.17333,-0.52 2.64,-0.52 z m 0.0533,1.7466665 q -1.72,0 -2.70667,1 -0.98666,0.986667 -1.22666,2.746667 h 7.34666 q 0,-0.826667 -0.22666,-1.506667 -0.22667,-0.693333 -0.66667,-1.186667 -0.44,-0.506666 -1.08,-0.773333 -0.62667,-0.28 -1.44,-0.28 z M 234.40319,22.559862 V 3.4531959 h 6.09333 q 1.76,0 3.02667,0.3466667 1.28,0.3466666 2.09333,0.9866666 0.82667,0.64 1.21334,1.5733333 0.4,0.92 0.4,2.08 0,0.7066666 -0.22667,1.3599999 -0.21333,0.6533336 -0.66667,1.2133336 -0.44,0.56 -1.12,1 -0.66666,0.44 -1.57333,0.72 2.09333,0.413333 3.16,1.506666 1.06667,1.093334 1.06667,2.88 0,1.213334 -0.45334,2.213334 -0.44,1 -1.30666,1.72 -0.85334,0.719999 -2.10667,1.119999 -1.24,0.386667 -2.84,0.386667 z m 2.58667,-8.706666 v 6.653333 h 4.13333 q 1.10667,0 1.89333,-0.253333 0.8,-0.253334 1.30667,-0.706667 0.52,-0.466667 0.76,-1.093333 0.24,-0.64 0.24,-1.4 0,-1.48 -1.05333,-2.333334 -1.04,-0.866666 -3.16,-0.866666 z m 0,-1.84 h 3.41333 q 1.09333,0 1.89333,-0.24 0.8,-0.24 1.32,-0.666667 0.53334,-0.426667 0.78667,-1.026667 0.25333,-0.6133329 0.25333,-1.3333329 0,-1.6799999 -1.01333,-2.4666666 -1.01333,-0.7866666 -3.14667,-0.7866666 h -3.50666 z"
       style=""
       id="path5177" />
  </g>
  <g
     id="text1095"
     style="font-style:normal;font-variant:normal;font-weight:normal;font-stretch:normal;font-size:26.66666603px;line-height:1.25;font-family:Lato;-inkscape-font-specification:'Lato, Normal';font-variant-ligatures:normal;font-variant-caps:normal;font-variant-numeric:normal;font-feature-settings:normal;text-align:start;letter-spacing:0px;word-spacing:0px;writing-mode:lr-tb;text-anchor:start;fill:#3d3d3d;fill-opacity:1;stroke:none"
     transform="skewX(20)"
     aria-label="Both">
    <path
       d="M 285.78843,46.429653 V 26.789654 h 2.37334 v 7.946666 q 0.86666,-0.92 1.92,-1.466667 1.05333,-0.56 2.42666,-0.56 1.10667,0 1.94667,0.373334 0.85333,0.36 1.41333,1.04 0.57334,0.666666 0.86667,1.613333 0.29333,0.946667 0.29333,2.093333 v 8.6 h -2.37333 v -8.6 q 0,-1.533333 -0.70667,-2.373333 -0.69333,-0.853333 -2.13333,-0.853333 -1.05333,0 -1.97333,0.506666 -0.90667,0.506667 -1.68,1.373334 v 9.946666 z m -5.85458,0.213333 q -1.6,0 -2.46667,-0.893333 -0.85333,-0.893333 -0.85333,-2.573333 v -8.266667 h -1.62667 q -0.21333,0 -0.36,-0.12 -0.14666,-0.133333 -0.14666,-0.4 v -0.946666 l 2.21333,-0.28 0.54667,-4.173333 q 0.0267,-0.2 0.17333,-0.32 0.14666,-0.133334 0.37333,-0.133334 h 1.2 v 4.653333 h 3.86667 v 1.72 h -3.86667 v 8.106667 q 0,0.853333 0.41333,1.266667 0.41334,0.413333 1.06667,0.413333 0.37333,0 0.64,-0.09333 0.28,-0.106667 0.48,-0.226667 0.2,-0.12 0.33333,-0.213333 0.14667,-0.106667 0.25334,-0.106667 0.18666,0 0.33333,0.226667 l 0.69333,1.133333 q -0.61333,0.573333 -1.48,0.906667 -0.86666,0.319999 -1.78666,0.319999 z M 266.46343,32.709653 q 1.48,0 2.66667,0.493334 1.2,0.493333 2.02666,1.4 0.84,0.906666 1.28,2.2 0.45334,1.28 0.45334,2.866666 0,1.6 -0.45334,2.88 -0.44,1.28 -1.28,2.186667 -0.82666,0.906667 -2.02666,1.4 -1.18667,0.48 -2.66667,0.48 -1.48,0 -2.68,-0.48 -1.18666,-0.493333 -2.02666,-1.4 -0.84,-0.906667 -1.29334,-2.186667 -0.45333,-1.28 -0.45333,-2.88 0,-1.586666 0.45333,-2.866666 0.45334,-1.293334 1.29334,-2.2 0.84,-0.906667 2.02666,-1.4 1.2,-0.493334 2.68,-0.493334 z m 0,12.053334 q 2,0 2.98667,-1.333334 0.98666,-1.346666 0.98666,-3.746666 0,-2.413334 -0.98666,-3.76 -0.98667,-1.346667 -2.98667,-1.346667 -1.01333,0 -1.76,0.346667 -0.74667,0.346666 -1.25333,1 -0.49334,0.653333 -0.74667,1.613333 -0.24,0.946667 -0.24,2.146667 0,1.2 0.24,2.146666 0.25333,0.946667 0.74667,1.6 0.50666,0.64 1.25333,0.986667 0.74667,0.346667 1.76,0.346667 z m -22.33291,1.666666 V 27.322987 h 6.09333 q 1.76,0 3.02667,0.346667 1.28,0.346666 2.09333,0.986666 0.82667,0.64 1.21333,1.573334 0.4,0.92 0.4,2.08 0,0.706666 -0.22666,1.359999 -0.21334,0.653334 -0.66667,1.213334 -0.44,0.56 -1.12,1 -0.66667,0.44 -1.57333,0.72 2.09333,0.413333 3.16,1.506666 1.06666,1.093334 1.06666,2.88 0,1.213334 -0.45333,2.213334 -0.44,1 -1.30667,1.72 -0.85333,0.72 -2.10666,1.12 -1.24,0.386666 -2.84,0.386666 z m 2.58666,-8.706666 v 6.653333 h 4.13334 q 1.10666,0 1.89333,-0.253333 0.8,-0.253334 1.30667,-0.706667 0.52,-0.466667 0.76,-1.093333 0.24,-0.64 0.24,-1.4 0,-1.48 -1.05334,-2.333334 -1.04,-0.866666 -3.16,-0.866666 z m 0,-1.84 h 3.41334 q 1.09333,0 1.89333,-0.24 0.8,-0.24 1.32,-0.666667 0.53333,-0.426667 0.78667,-1.026667 0.25333,-0.613333 0.25333,-1.333333 0,-1.68 -1.01333,-2.466666 -1.01334,-0.786667 -3.14667,-0.786667 h -3.50667 z"
       style=""
       id="path5187" />
  </g>
  <g
     aria-label="Marketing"
     transform="matrix(0.36749237,-0.90258528,0.93264368,0.4305111,154.18814,-52.479534)"
     style="font-style:normal;font-variant:normal;font-weight:normal;font-stretch:normal;font-size:26.66666603px;line-height:1.25;font-family:Roboto;-inkscape-font-specification:'Roboto, Normal';font-variant-ligatures:normal;font-variant-caps:normal;font-variant-numeric:normal;font-feature-settings:normal;text-align:start;letter-spacing:0px;word-spacing:0px;writing-mode:lr-tb;text-anchor:start;opacity:0.96000001;fill:#3d3d3d;fill-opacity:1;stroke:none"
     id="text1484">
    <path
       d="m -19.730079,244.5665 c 1.419798,-1.93045 3.06859,-3.40796 4.946566,-4.43647 1.877462,-1.03274 3.675445,-1.46501 5.3972029,-1.29942 1.7645801,0.16971 2.7583878,0.82908 2.9830912,1.97985 0,0 1.1016377,-1.34555 1.1016377,-1.34555 0,0 2.2540162,0.21662 2.2540162,0.21662 0,0 -8.705312,12.08558 -8.705312,12.08558 -1.172458,1.62772 -2.666424,2.86295 -4.482438,3.70289 -1.812012,0.84313 -3.677305,1.17872 -5.593652,1.00484 -1.068599,-0.097 -1.971818,-0.38793 -2.708997,-0.87274 -0.736958,-0.48466 -1.125288,-1.09179 -1.165121,-1.82082 0,0 2.265812,-1.17766 2.265812,-1.17766 0.245659,1.2449 1.15299,1.93987 2.720561,2.08296 1.229367,0.11221 2.40003,-0.097 3.511188,-0.62704 1.118296,-0.52823 2.064349,-1.32787 2.838203,-2.39764 0,0 0.78034,-1.07874 0.78034,-1.07874 -1.72041,0.89695 -3.452492,1.26617 -5.193882,1.10561 -1.724977,-0.15903 -2.689999,-0.88129 -2.893458,-2.16464 -0.193972,-1.27981 0.455947,-2.93405 1.944242,-4.95763 z m 2.339336,0.47789 c -1.026683,1.40185 -1.497773,2.5398 -1.410685,3.4114 0.09285,0.86517 0.750644,1.35493 1.972645,1.46828 1.582791,0.14682 3.188216,-0.35865 4.813412,-1.5135 0,0 4.0926429,-5.65766 4.0926429,-5.65766 0.090619,-1.24659 -0.6227994,-1.94137 -2.1411009,-2.08656 -1.206662,-0.11538 -2.440301,0.1916 -3.702396,0.92222 -1.264916,0.73226 -2.472755,1.88319 -3.624518,3.45582 z m -10.181575,-7.71977 c 0,0 -1.078252,1.55223 -1.078252,1.55223 2.004668,-1.07424 3.904303,-1.52346 5.70259,-1.35051 3.079722,0.29619 3.550106,1.90706 1.404372,4.84794 0,0 -6.099269,8.24857 -6.099269,8.24857 0,0 -2.532326,-0.23366 -2.532326,-0.23366 0,0 6.136087,-8.26375 6.136087,-8.26375 0.652434,-0.89167 0.897285,-1.57227 0.735642,-2.04292 -0.152527,-0.46945 -0.728596,-0.75185 -1.728722,-0.84748 -0.811337,-0.0776 -1.65997,0.0363 -2.54641,0.3419 -0.887503,0.30599 -1.725989,0.73938 -2.515589,1.30055 0,0 -6.682383,8.9026 -6.682383,8.9026 0,0 -2.545677,-0.23489 -2.545677,-0.23489 0,0 9.382495,-12.4481 9.382495,-12.4481 0,0 2.367442,0.22752 2.367442,0.22752 z m -15.816983,11.84531 c 0,0 -2.555365,-0.23578 -2.555365,-0.23578 0,0 9.494718,-12.4627 9.494718,-12.4627 0,0 2.51202,0.24142 2.51202,0.24142 0,0 -9.451373,12.45706 -9.451373,12.45706 z m 9.209536,-15.96436 c 0.257527,-0.33792 0.596489,-0.61122 1.016822,-0.82002 0.429046,-0.20777 0.886451,-0.28792 1.372337,-0.24055 0.485749,0.0473 0.766342,0.19937 0.841902,0.45615 0.07559,0.25689 -0.0146,0.55414 -0.270745,0.89188 -0.256347,0.33801 -0.596292,0.60767 -1.019899,0.80887 -0.423886,0.20132 -0.879565,0.27847 -1.366925,0.23132 -0.487496,-0.0472 -0.771719,-0.19594 -0.852541,-0.44627 -0.07176,-0.24936 0.02131,-0.54319 0.279049,-0.88138 z m -5.881294,-0.26795 c 0,0 -2.282585,2.96743 -2.282585,2.96743 0,0 2.751968,0.26447 2.751968,0.26447 0,0 -1.246327,1.62754 -1.246327,1.62754 0,0 -2.758171,-0.26368 -2.758171,-0.26368 0,0 -5.941232,7.72377 -5.941232,7.72377 -0.387357,0.50357 -0.555211,0.89514 -0.503209,1.17436 0.05799,0.27159 0.386703,0.43522 0.98597,0.49081 0.294948,0.0274 0.736129,0.0184 1.323354,-0.0269 0,0 -1.34015,1.75026 -1.34015,1.75026 -0.793576,0.0937 -1.509398,0.11124 -2.147198,0.0524 -1.146776,-0.10573 -1.786538,-0.47806 -1.918621,-1.11646 -0.131949,-0.63776 0.216228,-1.49254 1.042903,-2.56285 0,0 5.968302,-7.72726 5.968302,-7.72726 0,0 -2.698022,-0.25793 -2.698022,-0.25793 0,0 1.264309,-1.62982 1.264309,-1.62982 0,0 2.691939,0.25871 2.691939,0.25871 0,0 2.292957,-2.96873 2.292957,-2.96873 0,0 2.513813,0.24388 2.513813,0.24388 z m -24.395768,14.53993 c -2.050574,-0.18906 -3.27653,-0.9061 -3.675514,-2.14924 -0.392085,-1.24861 0.156754,-2.81107 1.641135,-4.68306 0,0 0.312007,-0.39347 0.312007,-0.39347 0.983095,-1.2398 2.138684,-2.3151 3.466325,-3.22682 1.339483,-0.91612 2.727527,-1.59548 4.164744,-2.03921 1.449732,-0.44964 2.76437,-0.61733 3.945335,-0.50375 1.929937,0.18561 3.016833,0.85719 3.262625,2.01652 0.246243,1.16148 -0.399978,2.73321 -1.944322,4.72042 0,0 -0.690996,0.88915 -0.690996,0.88915 0,0 -10.154697,-0.95464 -10.154697,-0.95464 -0.939781,1.24044 -1.300471,2.28451 -1.079849,3.1304 0.236329,0.84007 0.996343,1.32002 2.279111,1.43898 0.910382,0.0844 1.802822,2.1e-4 2.676968,-0.25242 0.8732,-0.25235 1.745465,-0.61268 2.616551,-1.08068 0,0 0.770854,1.17037 0.770854,1.17037 -2.526329,1.50997 -5.058332,2.15089 -7.590277,1.91745 z m 8.493329,-11.26169 c -1.027761,-0.0983 -2.136906,0.1318 -3.328638,0.69111 -1.187909,0.55269 -2.310283,1.38478 -3.367629,2.49776 0,0 7.495766,0.70871 7.495766,0.70871 0,0 0.125798,-0.16122 0.125798,-0.16122 0.769963,-1.08787 1.071967,-1.9548 0.907557,-2.6023 -0.158274,-0.65448 -0.769024,-1.03232 -1.832854,-1.13406 z m -19.978925,3.66489 c 0,0 -2.75745,1.25366 -2.75745,1.25366 0,0 -3.586649,4.44649 -3.586649,4.44649 0,0 -2.612725,-0.24107 -2.612725,-0.24107 0,0 14.338962,-17.70558 14.338962,-17.70558 0,0 2.549098,0.24901 2.549098,0.24901 0,0 -8.5636,10.6166 -8.5636,10.6166 0,0 2.489173,-1.24378 2.489173,-1.24378 0,0 7.952325,-3.63729 7.952325,-3.63729 0,0 3.107001,0.29859 3.107001,0.29859 0,0 -9.984413,4.63301 -9.984413,4.63301 0,0 0.715568,7.95242 0.715568,7.95242 0,0 -3.047691,-0.28121 -3.047691,-0.28121 0,0 -0.599599,-6.34085 -0.599599,-6.34085 z m -2.703772,-5.41362 c -0.346925,-0.0909 -0.748228,-0.15808 -1.203973,-0.20162 -1.693801,-0.16183 -3.330076,0.32237 -4.911298,1.45538 0,0 -7.332168,8.95516 -7.332168,8.95516 0,0 -2.627287,-0.24242 -2.627287,-0.24242 0,0 10.332159,-12.56921 10.332159,-12.56921 0,0 2.511966,0.24141 2.511966,0.24141 0,0 -1.131359,1.43684 -1.131359,1.43684 1.753793,-1.02723 3.403973,-1.4651 4.953548,-1.31607 0.500769,0.0482 0.837517,0.13805 1.010364,0.2697 0,0 -1.601952,1.97083 -1.601952,1.97083 z m -22.453205,9.37792 c 0.0568,-0.26572 0.30512,-0.72509 0.74457,-1.3775 -2.10064,0.93896 -4.00602,1.33094 -5.71244,1.17361 -1.52669,-0.14076 -2.48485,-0.61107 -2.87318,-1.4102 -0.37176,-0.80523 -0.0984,-1.75249 0.81799,-2.84038 1.11109,-1.31902 2.57693,-2.2816 4.39682,-2.88967 1.83155,-0.6135 3.845238,-0.81569 6.042289,-0.60783 0,0 2.542534,0.24053 2.542534,0.24053 0,0 0.817429,-0.98432 0.817429,-0.98432 0.620634,-0.74735 0.840508,-1.3656 0.660531,-1.85548 -0.173465,-0.49721 -0.789835,-0.79634 -1.849684,-0.89771 -0.929061,-0.0889 -1.868895,0.0285 -2.820031,0.35239 -0.952328,0.32431 -1.658162,0.75994 -2.117048,1.3071 0,0 -2.63166,-0.25013 -2.63166,-0.25013 0.52577,-0.62445 1.29988,-1.19929 2.32166,-1.72455 1.03593,-0.53116 2.155057,-0.92086 3.357497,-1.16952 1.210235,-0.24742 2.367348,-0.31786 3.472012,-0.21162 1.749199,0.16822 2.820183,0.65898 3.214582,1.47307 0.401191,0.80733 0.09988,1.84268 -0.906466,3.10815 0,0 -4.793546,5.79507 -4.793546,5.79507 -0.963898,1.16529 -1.55213,2.11096 -1.762965,2.83543 0,0 -0.155948,0.18868 -0.155948,0.18868 0,0 -2.764946,-0.25512 -2.764946,-0.25512 z m -2.99589,-2.06652 c 0.82722,0.0768 1.75829,-0.0269 2.79254,-0.31063 1.03297,-0.28338 1.948633,-0.69089 2.747044,-1.22219 0,0 2.151408,-2.59066 2.151408,-2.59066 0,0 -2.052227,-0.1932 -2.052227,-0.1932 -3.212845,-0.30246 -5.470375,0.31948 -6.771705,1.87041 -0.5704,0.6798 -0.74098,1.23756 -0.51097,1.67267 0.23014,0.43535 0.77825,0.69329 1.64391,0.7736 z m -13.64052,-17.76388 c 0,0 -5.09911,14.40916 -5.09911,14.40916 0,0 18.5416,-13.09976 18.5416,-13.09976 0,0 3.49922,0.34085 3.49922,0.34085 0,0 -14.31003,16.88794 -14.31003,16.88794 0,0 -2.76239,-0.25489 -2.76239,-0.25489 0,0 5.66543,-6.65899 5.66543,-6.65899 0,0 6.27223,-7.04893 6.27223,-7.04893 0,0 -18.57341,13.09565 -18.57341,13.09565 0,0 -2.12576,-0.19615 -2.12576,-0.19615 0,0 5.0385,-14.37247 5.0385,-14.37247 0,0 -5.86917,7.08326 -5.86917,7.08326 0,0 -5.80875,6.6766 -5.80875,6.6766 0,0 -2.79069,-0.2575 -2.79069,-0.2575 0,0 14.80376,-16.94751 14.80376,-16.94751 0,0 3.51857,0.34274 3.51857,0.34274 z"
       style="fill:#3d3d3d;fill-opacity:1"
       id="path1506" />
  </g>
  <g
     aria-label="Money"
     transform="rotate(59,88.22291,101.33664)"
     style="font-style:normal;font-variant:normal;font-weight:normal;font-stretch:normal;font-size:26.66666603px;line-height:1.25;font-family:Roboto;-inkscape-font-specification:'Roboto, Normal';font-variant-ligatures:normal;font-variant-caps:normal;font-variant-numeric:normal;font-feature-settings:normal;text-align:start;letter-spacing:0px;word-spacing:0px;writing-mode:lr-tb;text-anchor:start;fill:#3d3d3d;fill-opacity:1;stroke:none"
     id="text1488">
    <path
       d="m 200.44305,0.92453116 c 0,0 9.90204,-10.23733056 9.90204,-10.23733056 0,0 2.90908,0.076075 2.90908,0.076075 0,0 -15.93175,15.7354986 -15.93175,15.7354986 -2.35817,2.260126 -4.61126,3.361637 -6.76046,3.305628 0,0 -0.49007,-0.051438 -0.49007,-0.051438 0,0 -0.91229,-0.191346 -0.91229,-0.191346 0,0 1.14075,-1.904357 1.14075,-1.904357 0,0 0.70249,0.069903 0.70249,0.069903 0.91857,0.023947 1.72833,-0.1183101 2.42935,-0.4267916 0.71084,-0.308254 1.48884,-0.8857225 2.33412,-1.732539 0,0 1.43956,-1.382336 1.43956,-1.382336 0,0 2.50131,-13.776489 2.50131,-13.776489 0,0 2.96814,0.07762 2.96814,0.07762 0,0 -2.23227,10.43790226 -2.23227,10.43790256 z M 183.89529,4.2514051 c -2.15104,-0.05611 -3.53678,-0.7119983 -4.15734,-1.9680038 -0.61573,-1.2649433 -0.31099,-2.92429077 0.91493,-4.9786027 0,0 0.25845,-0.4330877 0.25845,-0.4330877 0.81609,-1.3675513 1.84238,-2.5791036 3.07892,-3.6344934 1.25178,-1.0639556 2.59682,-1.8839152 4.03502,-2.4597069 1.45331,-0.5841381 2.81198,-0.8597176 4.07581,-0.8266656 2.06715,0.05406 3.32003,0.6874018 3.75855,1.8997081 0.43838,1.2118833 -0.001,2.918261 -1.31869,5.1184101 0,0 -0.58716,0.9807007 -0.58716,0.9807007 0,0 -10.75989,-0.2809995 -10.75989,-0.2809995 -0.7719,1.35923556 -0.9732,2.47002753 -0.6042,3.332612 0.38377,0.854145 1.25045,1.2987478 2.6001,1.3339658 0.95843,0.025009 1.87159,-0.1233928 2.73952,-0.4452289 0.86803,-0.3218653 1.71896,-0.7561941 2.55285,-1.30302839 0,0 0.98778,1.16288399 0.98778,1.16288399 -2.39067,1.7372767 -4.91524,2.5709073 -7.57465,2.5015362 z m 7.04638,-12.3609926 c -1.09697,-0.028678 -2.22598,0.2959259 -3.38684,0.9737145 -1.15556,0.6691576 -2.19443,1.6260603 -3.11654,2.8704712 0,0 7.95842,0.2079101 7.95842,0.2079101 0,0 0.10674,-0.1783916 0.10674,-0.1783916 0.63846,-1.2000556 0.82065,-2.136183 0.54634,-2.8081701 -0.26926,-0.6806206 -0.97197,-1.0358319 -2.10812,-1.0655341 z m -19.31829,-2.2158205 c 0,0 -0.94423,1.7379255 -0.94423,1.7379255 2.00437,-1.2953914 3.98669,-1.9176405 5.94639,-1.8663905 3.36081,0.08789 4.07427,1.7785145 2.14183,5.0695418 0,0 -5.42722,9.1021828 -5.42722,9.1021828 0,0 -2.71361,-0.070788 -2.71361,-0.070788 0,0 5.43134,-9.1151364 5.43134,-9.1151364 0.58276,-0.9946843 0.75651,-1.7369754 0.52109,-2.2267127 -0.22564,-0.4895496 -0.88212,-0.748563 -1.96944,-0.7769885 -0.88163,-0.023048 -1.77699,0.1608499 -2.68602,0.5516616 -0.90891,0.3907687 -1.74669,0.9128658 -2.51328,1.5662324 0,0 -5.8394,9.8168854 -5.8394,9.8168854 0,0 -2.71387,-0.070795 -2.71387,-0.070795 0,0 8.19425,-13.7848824 8.19425,-13.7848824 0,0 2.57217,0.06726 2.57217,0.06726 z m -24.46966,6.2377719 c 0.79956,-1.3509706 1.82255,-2.5585067 3.06903,-3.6224585 1.25665,-1.0640187 2.60274,-1.8754593 4.03815,-2.4341454 1.44543,-0.558519 2.86895,-0.819487 4.27036,-0.782836 2.16579,0.05664 3.52868,0.753444 4.08854,2.0900267 0.56944,1.3363248 0.21289,3.0838308 -1.06888,5.241903 0,0 -0.0984,0.1656236 -0.0984,0.1656236 -0.79688,1.3416866 -1.81128,2.53927453 -3.04313,3.59291263 -1.21667,1.04509437 -2.55376,1.84991867 -4.01138,2.41463897 -1.4476,0.5648854 -2.88527,0.8286704 -4.3132,0.7914226 -2.15171,-0.056128 -3.5134,-0.7502283 -4.08521,-2.0826848 -0.56225,-1.33271316 -0.21047,-3.0687646 1.05605,-5.2087537 0,0 0.098,-0.1656491 0.098,-0.1656491 z m 2.56565,0.3516671 c -0.9053,1.5286125 -1.22562,2.76586682 -0.96132,3.71207148 0.27401,0.94620215 1.09582,1.43707652 2.46546,1.47281612 1.3794,0.035994 2.75183,-0.4019192 4.11758,-1.31391812 1.37115,-0.92072301 2.5582,-2.22583618 3.56125,-3.91577158 0.89762,-1.5122939 1.20783,-2.7470792 0.93028,-3.7040623 -0.26278,-0.965496 -1.08,-1.4662736 -2.45162,-1.5021319 -1.34226,-0.035091 -2.69959,0.4002106 -4.07173,1.3057289 -1.37178,0.905285 -2.56845,2.2205289 -3.5899,3.9452674 z m -17.23802,-12.465696 c 0,0 -1.93537,15.34048534 -1.93537,15.34048534 0,0 15.94154,-14.97389734 15.94154,-14.97389734 0,0 3.66308,0.09587 3.66308,0.09587 0,0 -10.97757,18.5657567 -10.97757,18.5657567 0,0 -2.81718,-0.07349 -2.81718,-0.07349 0,0 4.26512,-7.2183748 4.26512,-7.2183748 0,0 4.87822,-7.8011199 4.87822,-7.8011199 0,0 -15.89312,14.8434169 -15.89312,14.8434169 0,0 -2.15709,-0.056271 -2.15709,-0.056271 0,0 1.82268,-15.1726929 1.82268,-15.1726929 0,0 -4.29442,7.7780493 -4.29442,7.7780493 0,0 -4.24926,7.2193168 -4.24926,7.2193168 0,0 -2.81766,-0.073503 -2.81766,-0.073503 0,0 10.92206,-18.5690561 10.92206,-18.5690561 0,0 3.64897,0.09551 3.64897,0.09551 z"
       style="fill:#3d3d3d;fill-opacity:1"
       id="path1519" />
  </g>
  <path
     style="fill:#1e201d;stroke-width:1.2253685"
     d="m 159.54955,70.639913 13.45383,3.618396 c 0.73401,0.183228 1.49277,-0.254842 1.68413,-0.972326 0.19913,-0.743205 -0.23893,-1.50196 -0.97234,-1.684128 l -16.6585,-4.463626 c -0.72728,-0.208335 -1.48497,0.229121 -1.66714,0.962524 l -4.46469,16.659112 c -0.20834,0.727284 0.22912,1.484985 0.97233,1.684126 0.71809,0.192406 1.47579,-0.245042 1.66714,-0.962529 l 3.60921,-13.469748 z M 231.03533,199.9441 c 0.3801,0.65637 1.20386,0.87694 1.86075,0.49769 0.65688,-0.37926 0.89452,-1.21261 0.51529,-1.86949 m 0.002,0.003 -73.87768,-127.969771 -2.37603,1.371801 73.87742,127.96943 z"
     id="path5713" />
  <path
     style="fill:#1e201d;stroke-width:1.2253685"
     d="m 412.27172,73.331124 3.35783,13.521215 c 0.19558,0.730818 0.94658,1.182061 1.66691,1.001522 0.74659,-0.186149 1.19782,-0.937127 1.00153,-1.666933 l -4.1722,-16.733854 c -0.17037,-0.737099 -0.92033,-1.187718 -1.65011,-0.991483 l -16.7349,4.17161 c -0.7371,0.17037 -1.18772,0.92033 -1.00151,1.666922 0.17984,0.721331 0.92977,1.171952 1.65007,0.991475 l 13.5307,-3.373589 z m -78.435,125.210776 c -0.3898,0.65066 -0.18334,1.47806 0.46682,1.86875 0.65019,0.39057 1.49424,0.19445 1.88492,-0.45569 m -0.002,0.003 L 412.2948,73.302183 409.94314,71.889051 333.835,198.54449 Z"
     id="path5713-0" />
  <g
     id="text9747"
     style="font-style:normal;font-variant:normal;font-weight:normal;font-stretch:normal;font-size:40px;line-height:1.25;font-family:Lato;-inkscape-font-specification:'Lato, Normal';font-variant-ligatures:normal;font-variant-caps:normal;font-variant-numeric:normal;font-feature-settings:normal;text-align:start;letter-spacing:0px;word-spacing:0px;writing-mode:lr-tb;text-anchor:start;fill:#ffffff;fill-opacity:1;stroke:none"
     aria-label="Waywe">
    <path
       d="m 343.75445,244.37044 q 1.82,0 3.36,0.62 1.54,0.6 2.66,1.76 1.12,1.14 1.74,2.84 0.64,1.68 0.64,3.84 0,0.84 -0.18,1.12 -0.18,0.28 -0.68,0.28 h -13.48 q 0.04,1.92 0.52,3.34 0.48,1.42 1.32,2.38 0.84,0.94 2,1.42 1.16,0.46 2.6,0.46 1.34,0 2.3,-0.3 0.98,-0.32 1.68,-0.68 0.7,-0.36 1.16,-0.66 0.48,-0.32 0.82,-0.32 0.44,0 0.68,0.34 l 1,1.3 q -0.66,0.8 -1.58,1.4 -0.92,0.58 -1.98,0.96 -1.04,0.38 -2.16,0.56 -1.12,0.2 -2.22,0.2 -2.1,0 -3.88,-0.7 -1.76,-0.72 -3.06,-2.08 -1.28,-1.38 -2,-3.4 -0.72,-2.02 -0.72,-4.64 0,-2.12 0.64,-3.96 0.66,-1.84 1.88,-3.18 1.22,-1.36 2.98,-2.12 1.76,-0.78 3.96,-0.78 z m 0.08,2.62 q -2.58,0 -4.06,1.5 -1.48,1.48 -1.84,4.12 h 11.02 q 0,-1.24 -0.34,-2.26 -0.34,-1.04 -1,-1.78 -0.66,-0.76 -1.62,-1.16 -0.94,-0.42 -2.16,-0.42 z m -41.365,-2.3 h 2.8 q 0.44,0 0.72,0.22 0.28,0.22 0.38,0.52 l 3.88,13.04 q 0.16,0.72 0.3,1.4 0.14,0.66 0.24,1.34 0.16,-0.68 0.36,-1.34 0.2,-0.68 0.42,-1.4 l 4.28,-13.12 q 0.1,-0.3 0.34,-0.5 0.26,-0.2 0.64,-0.2 h 1.54 q 0.4,0 0.66,0.2 0.26,0.2 0.36,0.5 l 4.18,13.12 q 0.22,0.7 0.38,1.38 0.18,0.68 0.34,1.34 0.1,-0.66 0.26,-1.38 0.16,-0.72 0.34,-1.34 l 3.96,-13.04 q 0.1,-0.32 0.38,-0.52 0.28,-0.22 0.66,-0.22 h 2.68 l -6.56,20.26 h -2.82 q -0.52,0 -0.72,-0.68 l -4.48,-13.74 q -0.16,-0.46 -0.26,-0.92 -0.1,-0.48 -0.2,-0.94 -0.1,0.46 -0.2,0.94 -0.1,0.48 -0.26,0.94 l -4.54,13.72 q -0.22,0.68 -0.82,0.68 h -2.68 z m -11.88875,26.24 q -0.18,0.4 -0.46,0.64 -0.26,0.24 -0.82,0.24 h -2.64 l 3.7,-8.04 -8.36,-19.08 h 3.08 q 0.46,0 0.72,0.24 0.26,0.22 0.38,0.5 l 5.42,12.76 q 0.18,0.44 0.3,0.88 0.14,0.44 0.24,0.9 0.14,-0.46 0.28,-0.9 0.14,-0.44 0.32,-0.9 l 5.26,-12.74 q 0.12,-0.32 0.4,-0.52 0.3,-0.22 0.64,-0.22 h 2.84 z m -10.7475,-5.98 h -1.58 q -0.52,0 -0.84,-0.16 -0.32,-0.16 -0.42,-0.68 l -0.4,-1.88 q -0.8,0.72 -1.56,1.3 -0.76,0.56 -1.6,0.96 -0.84,0.38 -1.8,0.58 -0.94,0.2 -2.1,0.2 -1.18,0 -2.22,-0.32 -1.02,-0.34 -1.78,-1 -0.76,-0.66 -1.22,-1.66 -0.44,-1.02 -0.44,-2.4 0,-1.2 0.66,-2.3 0.66,-1.12 2.12,-1.98 1.48,-0.86 3.86,-1.4 2.38,-0.56 5.82,-0.64 v -1.58 q 0,-2.36 -1.02,-3.56 -1,-1.22 -2.98,-1.22 -1.3,0 -2.2,0.34 -0.88,0.32 -1.54,0.74 -0.64,0.4 -1.12,0.74 -0.46,0.32 -0.92,0.32 -0.36,0 -0.64,-0.18 -0.26,-0.2 -0.42,-0.48 l -0.64,-1.14 q 1.68,-1.62 3.62,-2.42 1.94,-0.8 4.3,-0.8 1.7,0 3.02,0.56 1.32,0.56 2.22,1.56 0.9,1 1.36,2.42 0.46,1.42 0.46,3.12 z m -9.24,-2.18 q 0.94,0 1.72,-0.18 0.78,-0.2 1.46,-0.54 0.7,-0.36 1.32,-0.86 0.64,-0.5 1.24,-1.14 v -4.22 q -2.46,0.08 -4.18,0.4 -1.72,0.3 -2.8,0.8 -1.08,0.5 -1.58,1.18 -0.48,0.68 -0.48,1.52 0,0.8 0.26,1.38 0.26,0.58 0.7,0.96 0.44,0.36 1.04,0.54 0.6,0.16 1.3,0.16 z m -47.26437,-26.48 h 3.22 q 0.52,0 0.86,0.26 0.34,0.26 0.46,0.66 l 5.92,19.92 q 0.16,0.54 0.28,1.16 0.14,0.62 0.26,1.3 0.14,-0.68 0.28,-1.3 0.14,-0.64 0.32,-1.16 l 6.74,-19.92 q 0.12,-0.34 0.46,-0.62 0.36,-0.3 0.86,-0.3 h 1.12 q 0.52,0 0.84,0.26 0.34,0.26 0.48,0.66 l 6.7,19.92 q 0.36,1.04 0.64,2.38 0.12,-0.66 0.22,-1.26 0.1,-0.6 0.26,-1.12 l 5.94,-19.92 q 0.1,-0.36 0.44,-0.64 0.36,-0.28 0.86,-0.28 h 3.02 l -8.94,28.66 h -3.48 l -7.26,-21.86 q -0.22,-0.62 -0.4,-1.44 -0.1,0.4 -0.2,0.78 -0.08,0.36 -0.18,0.66 l -7.3,21.86 h -3.48 z"
       style=""
       id="path5216" />
  </g>
  <g
     id="text9751"
     style="font-style:normal;font-variant:normal;font-weight:normal;font-stretch:normal;font-size:33.33333206px;line-height:1.25;font-family:Lato;-inkscape-font-specification:'Lato, Normal';font-variant-ligatures:normal;font-variant-caps:normal;font-variant-numeric:normal;font-feature-settings:normal;text-align:start;letter-spacing:0px;word-spacing:0px;writing-mode:lr-tb;text-anchor:start;fill:#fffffa;fill-opacity:1;stroke:none"
     aria-label="Company">
    <path
       d="m 546.99101,54.883537 q -0.15,0.333333 -0.38334,0.533333 -0.21666,0.2 -0.68333,0.2 h -2.2 l 3.08333,-6.7 -6.96666,-15.899999 h 2.56666 q 0.38334,0 0.6,0.2 0.21667,0.183333 0.31667,0.416667 l 4.51667,10.633333 q 0.15,0.366666 0.25,0.733333 0.11666,0.366667 0.2,0.75 0.11666,-0.383333 0.23333,-0.75 0.11667,-0.366667 0.26667,-0.75 l 4.38333,-10.616666 q 0.1,-0.266667 0.33333,-0.433334 0.25,-0.183333 0.53334,-0.183333 h 2.36666 z M 524.00716,49.900204 V 33.016871 h 1.76666 q 0.63334,0 0.8,0.616667 l 0.23334,1.833333 q 1.1,-1.216667 2.45,-1.966667 1.36666,-0.75 3.14999,-0.75 1.38334,0 2.43334,0.466667 1.06666,0.45 1.76666,1.3 0.71667,0.833333 1.08334,2.016667 0.36666,1.183333 0.36666,2.616666 v 10.75 h -2.96666 v -10.75 q 0,-1.916666 -0.88334,-2.966666 -0.86666,-1.066667 -2.66666,-1.066667 -1.31667,0 -2.46667,0.633333 -1.13333,0.633334 -2.1,1.716667 v 12.433333 z m -4.52709,0 h -1.31667 q -0.43333,0 -0.7,-0.133334 -0.26666,-0.133333 -0.35,-0.566666 l -0.33333,-1.566667 q -0.66667,0.6 -1.3,1.083333 -0.63333,0.466667 -1.33333,0.8 -0.7,0.316667 -1.5,0.483334 -0.78334,0.166666 -1.75,0.166666 -0.98334,0 -1.85,-0.266666 -0.85,-0.283334 -1.48334,-0.833334 -0.63333,-0.55 -1.01666,-1.383333 -0.36667,-0.85 -0.36667,-2 0,-1 0.55,-1.916666 0.55,-0.933334 1.76667,-1.65 1.23333,-0.716667 3.21666,-1.166667 1.98334,-0.466667 4.85,-0.533333 v -1.316667 q 0,-1.966666 -0.85,-2.966666 -0.83333,-1.016667 -2.48333,-1.016667 -1.08333,0 -1.83333,0.283333 -0.73334,0.266667 -1.28334,0.616667 -0.53333,0.333333 -0.93333,0.616667 -0.38333,0.266666 -0.76667,0.266666 -0.3,0 -0.53333,-0.15 -0.21667,-0.166666 -0.35,-0.4 l -0.53333,-0.95 q 1.4,-1.35 3.01666,-2.016666 1.61667,-0.666667 3.58334,-0.666667 1.41666,0 2.51666,0.466667 1.1,0.466666 1.85,1.3 0.75,0.833333 1.13334,2.016666 0.38333,1.183334 0.38333,2.6 z m -7.7,-1.816667 q 0.78333,0 1.43333,-0.15 0.65,-0.166667 1.21667,-0.45 0.58333,-0.3 1.1,-0.716667 0.53333,-0.416666 1.03333,-0.949999 v -3.516667 q -2.05,0.06667 -3.48333,0.333333 -1.43333,0.25 -2.33333,0.666667 -0.9,0.416667 -1.31667,0.983333 -0.4,0.566667 -0.4,1.266667 0,0.666667 0.21667,1.15 0.21666,0.483333 0.58333,0.8 0.36667,0.3 0.86667,0.45 0.5,0.133333 1.08333,0.133333 z M 488.65559,55.61687 V 33.016871 h 1.76667 q 0.63333,0 0.8,0.616667 l 0.25,2 q 1.08333,-1.316667 2.46667,-2.116667 1.4,-0.8 3.21666,-0.8 1.45,0 2.63334,0.566667 1.18333,0.55 2.01666,1.65 0.83334,1.083333 1.28334,2.7 0.45,1.616666 0.45,3.716666 0,1.866667 -0.5,3.483333 -0.5,1.6 -1.43334,2.783333 -0.93333,1.166667 -2.3,1.85 -1.35,0.666667 -3.05,0.666667 -1.56666,0 -2.68333,-0.516667 -1.1,-0.516666 -1.95,-1.466666 v 7.466666 z m 7.51667,-20.499999 q -1.45,0 -2.55,0.666667 -1.08333,0.666666 -2,1.883333 v 8.166666 q 0.81667,1.1 1.78333,1.55 0.98334,0.45 2.18334,0.45 2.35,0 3.61666,-1.683333 1.26667,-1.683333 1.26667,-4.8 0,-1.65 -0.3,-2.833333 -0.28333,-1.183333 -0.83333,-1.933333 -0.55,-0.766667 -1.35,-1.116667 -0.8,-0.35 -1.81667,-0.35 z M 461.31184,49.900204 V 33.016871 h 1.76667 q 0.63333,0 0.8,0.616667 l 0.21667,1.733333 q 0.93333,-1.15 2.08333,-1.883333 1.16667,-0.733334 2.7,-0.733334 1.71667,0 2.76667,0.95 1.06666,0.95 1.53333,2.566667 0.35,-0.916667 0.91667,-1.583333 0.58333,-0.666667 1.3,-1.1 0.71666,-0.433334 1.51666,-0.633334 0.81667,-0.2 1.65,-0.2 1.33334,0 2.36667,0.433334 1.05,0.416666 1.76667,1.233333 0.73333,0.816667 1.11666,2.016667 0.38334,1.183333 0.38334,2.716666 v 10.75 h -2.96667 v -10.75 q 0,-1.983333 -0.86667,-3 -0.86666,-1.033333 -2.51666,-1.033333 -0.73334,0 -1.4,0.266667 -0.65,0.25 -1.15,0.75 -0.5,0.5 -0.8,1.266666 -0.28334,0.75 -0.28334,1.75 v 10.75 h -2.96666 v -10.75 q 0,-2.033333 -0.81667,-3.033333 -0.81667,-1 -2.38333,-1 -1.1,0 -2.05,0.6 -0.93334,0.583333 -1.71667,1.6 v 12.583333 z m -11.72135,-17.15 q 1.85,0 3.33333,0.616667 1.5,0.616667 2.53333,1.75 1.05,1.133333 1.6,2.75 0.56667,1.6 0.56667,3.583333 0,2 -0.56667,3.6 -0.55,1.6 -1.6,2.733333 -1.03333,1.133333 -2.53333,1.75 -1.48333,0.6 -3.33333,0.6 -1.85,0 -3.35,-0.6 -1.48333,-0.616667 -2.53333,-1.75 -1.05,-1.133333 -1.61667,-2.733333 -0.56667,-1.6 -0.56667,-3.6 0,-1.983333 0.56667,-3.583333 0.56667,-1.616667 1.61667,-2.75 1.05,-1.133333 2.53333,-1.75 1.5,-0.616667 3.35,-0.616667 z m 0,15.066666 q 2.5,0 3.73333,-1.666666 1.23333,-1.683333 1.23333,-4.683333 0,-3.016667 -1.23333,-4.7 -1.23333,-1.683333 -3.73333,-1.683333 -1.26667,0 -2.2,0.433333 -0.93333,0.433333 -1.56667,1.25 -0.61666,0.816667 -0.93333,2.016666 -0.3,1.183334 -0.3,2.683334 0,1.5 0.3,2.683333 0.31667,1.183333 0.93333,2 0.63334,0.8 1.56667,1.233333 0.93333,0.433333 2.2,0.433333 z m -12.3849,-2.849999 q 0.26667,0 0.48334,0.216666 l 1.26666,1.383333 q -1.46666,1.7 -3.56666,2.65 -2.08334,0.95 -5.03334,0.95 -2.58333,0 -4.68333,-0.883333 -2.1,-0.9 -3.58333,-2.5 -1.48334,-1.616666 -2.3,-3.866666 -0.81667,-2.25 -0.81667,-4.95 0,-2.7 0.86667,-4.95 0.88333,-2.25 2.46666,-3.866667 1.58334,-1.616666 3.78334,-2.499999 2.21666,-0.9 4.88333,-0.9 2.63333,0 4.53333,0.816666 1.91667,0.816667 3.4,2.216667 l -1.05,1.483333 q -0.11666,0.166667 -0.26666,0.283333 -0.15,0.1 -0.43334,0.1 -0.21666,0 -0.46666,-0.15 -0.23334,-0.166666 -0.56667,-0.4 -0.33333,-0.233333 -0.78333,-0.5 -0.45,-0.266666 -1.06667,-0.5 -0.61667,-0.233333 -1.43333,-0.383333 -0.81667,-0.166666 -1.88334,-0.166666 -1.91666,0 -3.51666,0.666666 -1.58334,0.65 -2.73334,1.866667 -1.15,1.216666 -1.8,2.966666 -0.63333,1.75 -0.63333,3.916667 0,2.233333 0.63333,3.983333 0.65,1.75 1.75,2.966667 1.11667,1.2 2.63334,1.833333 1.51666,0.633333 3.26666,0.633333 1.06667,0 1.91667,-0.116667 0.85,-0.133333 1.56667,-0.4 0.73333,-0.266666 1.35,-0.666666 0.63333,-0.416667 1.26666,-0.983333 0.28334,-0.25 0.55,-0.25 z"
       style=""
       id="path5204" />
  </g>
  <g
     id="text9755"
     style="font-style:normal;font-variant:normal;font-weight:normal;font-stretch:normal;font-size:33.33333206px;line-height:1.25;font-family:Lato;-inkscape-font-specification:'Lato, Normal';font-variant-ligatures:normal;font-variant-caps:normal;font-variant-numeric:normal;font-feature-settings:normal;text-align:start;letter-spacing:0px;word-spacing:0px;writing-mode:lr-tb;text-anchor:start;fill:#ffffff;fill-opacity:1;stroke:none"
     aria-label="Customer">
    <path
       d="m 20.304688,25.917969 c -1.777778,0 -3.405035,0.30039 -4.882813,0.90039 -1.466667,0.588889 -2.727648,1.422222 -3.783203,2.5 -1.055555,1.077778 -1.8779079,2.365235 -2.466797,3.865235 -0.5777777,1.5 -0.8671875,3.151172 -0.8671875,4.951172 0,1.8 0.2719618,3.449218 0.8164063,4.949218 0.5444444,1.5 1.3118922,2.789411 2.3007812,3.867188 0.988889,1.066667 2.182031,1.9 3.582031,2.5 1.4,0.588889 2.961371,0.882812 4.683594,0.882812 1.966667,0 3.644314,-0.315885 5.033203,-0.949218 1.4,-0.633334 2.588629,-1.517058 3.566406,-2.650391 l -1.265625,-1.382813 c -0.144444,-0.144443 -0.306597,-0.216796 -0.484375,-0.216796 -0.177777,0 -0.359938,0.08333 -0.548828,0.25 -0.422222,0.377777 -0.845356,0.704644 -1.267578,0.982422 -0.411111,0.266666 -0.860721,0.488237 -1.349609,0.666015 -0.477778,0.177777 -0.99974,0.311501 -1.566406,0.400391 -0.566667,0.07778 -1.204905,0.117187 -1.916016,0.117187 -1.166667,0 -2.256467,-0.21059 -3.267578,-0.632812 -1.011111,-0.422222 -1.888368,-1.033985 -2.632813,-1.833985 -0.733333,-0.811111 -1.316666,-1.80013 -1.75,-2.966796 -0.422222,-1.166667 -0.632812,-2.493534 -0.632812,-3.982422 0,-1.444445 0.21059,-2.751302 0.632812,-3.917969 0.433334,-1.166667 1.032162,-2.155686 1.798828,-2.966797 0.766667,-0.811111 1.67882,-1.431901 2.734375,-1.865234 1.066667,-0.444444 2.237847,-0.667969 3.515625,-0.667969 0.711111,0 1.340321,0.05686 1.884766,0.167969 0.544445,0.1 1.022483,0.227256 1.433594,0.382812 0.411111,0.155555 0.766406,0.322222 1.066406,0.5 0.3,0.177777 0.560981,0.344445 0.783203,0.5 0.222222,0.155556 0.41085,0.28928 0.566406,0.400391 0.166667,0.1 0.322353,0.15039 0.466797,0.15039 0.18889,0 0.333594,-0.0349 0.433594,-0.101562 0.1,-0.07778 0.187848,-0.172092 0.265625,-0.283203 l 1.050781,-1.482422 c -0.988888,-0.933333 -2.122613,-1.672352 -3.40039,-2.216797 -1.266667,-0.544444 -2.777648,-0.816406 -4.533203,-0.816406 z m 47.226562,1.783203 c -0.188889,0 -0.344575,0.0549 -0.466797,0.166016 -0.122225,0.1 -0.194577,0.233723 -0.216797,0.40039 l -0.683594,5.216797 -2.767578,0.349609 v 1.183594 c 0,0.222223 0.06137,0.388889 0.183594,0.5 0.122223,0.1 0.273395,0.150391 0.451172,0.150391 h 2.033203 V 46 c 0,1.4 0.355296,2.472352 1.066406,3.216797 0.722223,0.744444 1.750651,1.117187 3.083985,1.117187 0.766666,0 1.5102,-0.133724 2.232422,-0.40039 0.722222,-0.277778 1.338498,-0.655035 1.849609,-1.132813 l -0.867187,-1.416015 c -0.122223,-0.18889 -0.26046,-0.283204 -0.416016,-0.283204 -0.08889,0 -0.194184,0.04392 -0.316406,0.132813 C 72.586154,47.312152 72.447917,47.4 72.28125,47.5 c -0.166667,0.1 -0.368229,0.194314 -0.601562,0.283203 -0.222223,0.07778 -0.487717,0.117188 -0.798829,0.117188 -0.544444,0 -0.989539,-0.171181 -1.333984,-0.515625 C 69.20243,47.040321 69.03125,46.511893 69.03125,45.800781 V 35.667969 h 4.832031 V 33.517578 H 69.03125 v -5.816406 z m 81.29687,5.183594 c -1.14444,0 -2.14444,0.333333 -3,1 -0.84443,0.655555 -1.55503,1.572222 -2.13281,2.75 L 143.49609,34 c -0.0444,-0.3 -0.12778,-0.51059 -0.25,-0.632812 -0.12222,-0.122222 -0.34574,-0.183594 -0.66797,-0.183594 h -1.69921 v 16.884765 h 2.96679 v -10.75 c 0.46667,-1.144444 1.04354,-2.017187 1.73242,-2.617187 0.7,-0.6 1.56628,-0.900391 2.59961,-0.900391 0.57778,0 1.02935,0.0549 1.35157,0.166016 0.32222,0.1 0.56124,0.150391 0.71679,0.150391 0.26667,-10e-7 0.43785,-0.138239 0.51563,-0.416016 l 0.38281,-2.216797 c -0.32222,-0.188889 -0.67105,-0.333594 -1.04883,-0.433594 -0.37778,-0.111111 -0.80091,-0.166015 -1.26758,-0.166015 z m -93.134761,0.0332 c -0.955555,0 -1.804383,0.133724 -2.548828,0.40039 -0.744444,0.266667 -1.371702,0.626476 -1.882812,1.082032 -0.511112,0.444444 -0.901302,0.966406 -1.167969,1.566406 -0.266667,0.588889 -0.400391,1.207118 -0.400391,1.851562 0,0.722222 0.122743,1.338498 0.367188,1.84961 0.255555,0.5 0.588889,0.92118 1,1.265625 0.411111,0.344444 0.878168,0.633854 1.400391,0.867187 0.533333,0.222223 1.072743,0.421832 1.617187,0.59961 0.555556,0.177778 1.093012,0.350911 1.615234,0.517578 0.533334,0.155555 1.006858,0.344183 1.417969,0.566406 0.411111,0.211111 0.737977,0.472092 0.982422,0.783203 0.255555,0.3 0.382813,0.683724 0.382812,1.150391 0,0.377778 -0.0704,0.733073 -0.214843,1.066406 -0.133334,0.333333 -0.345877,0.627257 -0.634766,0.882813 -0.288889,0.255555 -0.648698,0.461632 -1.082031,0.617187 -0.433333,0.144445 -0.9398,0.216797 -1.517578,0.216797 -0.677778,0 -1.243663,-0.07882 -1.699219,-0.234375 -0.444444,-0.155556 -0.828168,-0.326736 -1.150391,-0.515625 -0.31111,-0.188889 -0.578558,-0.362023 -0.800781,-0.517578 -0.222222,-0.155556 -0.432812,-0.232422 -0.632812,-0.232422 -0.2,0 -0.3602,0.03941 -0.482422,0.117187 -0.122223,0.07778 -0.229471,0.187588 -0.31836,0.332032 l -0.699218,1.132812 c 0.666666,0.6 1.478038,1.095486 2.433593,1.484375 0.955556,0.377777 2.021442,0.566406 3.199219,0.566406 1.033333,0 1.945486,-0.138238 2.734375,-0.416015 0.788889,-0.277778 1.455556,-0.656988 2,-1.134766 0.544445,-0.488889 0.954644,-1.059288 1.232422,-1.714844 0.277777,-0.666666 0.417969,-1.39019 0.417969,-2.167968 0,-0.677778 -0.129211,-1.254644 -0.384766,-1.732422 C 60.632508,42.67908 60.305642,42.266927 59.894531,41.933594 59.48342,41.60026 59.016363,41.323785 58.494141,41.101562 57.971918,40.879341 57.432508,40.677778 56.876953,40.5 c -0.544444,-0.188889 -1.077387,-0.36007 -1.599609,-0.515625 -0.522222,-0.166667 -0.98928,-0.355295 -1.400391,-0.566406 -0.411111,-0.211112 -0.744444,-0.461112 -1,-0.75 -0.244444,-0.288889 -0.365234,-0.650651 -0.365234,-1.083985 0,-0.344444 0.0704,-0.66033 0.214843,-0.949218 0.155556,-0.3 0.372614,-0.560981 0.650391,-0.783204 0.288889,-0.222222 0.633203,-0.395356 1.033203,-0.517578 0.4,-0.133333 0.851563,-0.199218 1.351563,-0.199218 0.577777,0 1.077777,0.06589 1.5,0.199218 0.422222,0.122222 0.782031,0.26046 1.082031,0.416016 0.311111,0.144444 0.572092,0.278168 0.783203,0.400391 0.211111,0.122222 0.39974,0.183593 0.566406,0.183593 0.277778,0 0.483855,-0.122742 0.617188,-0.367187 l 0.666015,-1.082031 c -0.644444,-0.611112 -1.409939,-1.08915 -2.298828,-1.433594 -0.877777,-0.355556 -1.873263,-0.533203 -2.984375,-0.533203 z m 28.671875,0 c -1.233333,0 -2.349609,0.204123 -3.349609,0.615234 -0.988889,0.411111 -1.833203,0.994445 -2.533203,1.75 -0.7,0.755555 -1.23941,1.672222 -1.617188,2.75 -0.377777,1.066667 -0.566406,2.261762 -0.566406,3.583985 0,1.333333 0.188629,2.532942 0.566406,3.599609 0.377778,1.066667 0.917188,1.97882 1.617188,2.734375 0.7,0.755555 1.544314,1.338889 2.533203,1.75 1,0.4 2.116276,0.599609 3.349609,0.599609 1.233334,0 2.345096,-0.199609 3.333985,-0.599609 1,-0.411111 1.844314,-0.994445 2.533203,-1.75 0.7,-0.755555 1.232943,-1.667708 1.599609,-2.734375 0.377778,-1.066667 0.566407,-2.266276 0.566407,-3.599609 -10e-7,-1.322222 -0.188629,-2.517318 -0.566407,-3.583985 -0.366666,-1.077778 -0.899609,-1.994445 -1.599609,-2.75 -0.688889,-0.755555 -1.533203,-1.338889 -2.533203,-1.75 -0.988889,-0.411111 -2.100651,-0.615234 -3.333985,-0.615234 z m 19.289066,0 c -1.02223,0 -1.9234,0.243532 -2.70118,0.732422 -0.76666,0.488888 -1.461757,1.116145 -2.083979,1.882812 L 98.654297,33.800781 C 98.543186,33.38967 98.275738,33.183594 97.853516,33.183594 h -1.767578 v 16.884765 h 2.966796 V 37.484375 c 0.522222,-0.677778 1.094576,-1.210721 1.716796,-1.599609 0.63333,-0.4 1.31745,-0.601563 2.05078,-0.601563 1.04445,0 1.83837,0.333333 2.38281,1 0.54444,0.666667 0.81641,1.679601 0.81641,3.035156 v 10.75 h 2.9668 v -10.75 c 0,-0.666666 0.0943,-1.25 0.2832,-1.75 0.2,-0.51111 0.46745,-0.934244 0.80078,-1.267578 0.33334,-0.333333 0.71706,-0.583333 1.15039,-0.75 0.44445,-0.177778 0.90955,-0.267578 1.39844,-0.267578 1.1,0 1.9398,0.346268 2.51758,1.035156 0.57778,0.677778 0.86719,1.677778 0.86719,3 v 10.75 h 2.96679 v -10.75 c 0,-1.022222 -0.12921,-1.927908 -0.38476,-2.716797 -0.25556,-0.799999 -0.62634,-1.473133 -1.11524,-2.017578 -0.47777,-0.544444 -1.06757,-0.954644 -1.76758,-1.232422 -0.68889,-0.288889 -1.4783,-0.433593 -2.36718,-0.433593 -0.55556,0 -1.10399,0.06589 -1.64844,0.199219 -0.53333,0.133333 -1.0398,0.343923 -1.51758,0.632812 -0.47777,0.288889 -0.91189,0.657118 -1.30078,1.101562 -0.37777,0.444444 -0.68268,0.97092 -0.91602,1.582032 -0.31111,-1.077778 -0.82208,-1.933073 -1.5332,-2.566406 -0.7,-0.633334 -1.62118,-0.949219 -2.76562,-0.949219 z m 26.45898,0 c -1.22222,0 -2.32105,0.217057 -3.29883,0.65039 -0.97777,0.422223 -1.80659,1.01007 -2.48437,1.765625 -0.67778,0.744445 -1.19974,1.628169 -1.56641,2.650391 -0.35555,1.022222 -0.5332,2.12105 -0.5332,3.298828 0,1.455555 0.19961,2.744966 0.59961,3.867188 0.4,1.122222 0.95685,2.067318 1.66797,2.833984 0.72222,0.755556 1.57105,1.332422 2.54883,1.732422 0.98888,0.388889 2.0677,0.583984 3.23437,0.583984 0.61111,0 1.22739,-0.0549 1.84961,-0.166015 0.62222,-0.1 1.22105,-0.255687 1.79883,-0.466797 0.58888,-0.211112 1.13927,-0.478559 1.65039,-0.800781 0.51111,-0.333334 0.94974,-0.721571 1.3164,-1.166016 l -0.83203,-1.083984 c -0.13333,-0.188889 -0.32196,-0.283204 -0.5664,-0.283204 -0.1889,0 -0.41693,0.0898 -0.6836,0.267578 -0.25555,0.166667 -0.57791,0.348829 -0.96679,0.548829 -0.3889,0.2 -0.85595,0.388628 -1.40039,0.566406 -0.53334,0.166667 -1.17157,0.25 -1.91602,0.25 -0.8,0 -1.52352,-0.127257 -2.16797,-0.382813 -0.64444,-0.266666 -1.19935,-0.661371 -1.66601,-1.183593 -0.46667,-0.533334 -0.83295,-1.193534 -1.09961,-1.982422 -0.2667,-0.788889 -0.4114,-1.716537 -0.4336,-2.783203 h 11.23242 c 0.27778,0 0.46641,-0.07882 0.56641,-0.234375 0.1,-0.155556 0.15039,-0.466927 0.15039,-0.933594 0,-1.2 -0.17765,-2.265886 -0.5332,-3.199219 -0.34445,-0.944444 -0.827,-1.733854 -1.44922,-2.367187 -0.62222,-0.644445 -1.36124,-1.133464 -2.2168,-1.466797 -0.85555,-0.344445 -1.78967,-0.515625 -2.80078,-0.515625 z m -98.423827,0.265625 v 10.767578 c 0,0.955556 0.116276,1.828299 0.349609,2.617187 0.244444,0.788889 0.606207,1.46007 1.083985,2.015625 0.477778,0.555556 1.065626,0.989671 1.765625,1.300782 0.711111,0.3 1.52895,0.449218 2.451172,0.449218 1.177778,0 2.221701,-0.243533 3.132812,-0.732422 0.911111,-0.499999 1.733464,-1.155685 2.466797,-1.966796 l 0.232422,1.816406 c 0.111111,0.411111 0.378559,0.617187 0.800781,0.617187 h 1.767578 V 33.183594 h -2.966796 v 12.451172 c -0.644445,0.733333 -1.350521,1.305686 -2.117188,1.716796 -0.766667,0.411112 -1.582552,0.615235 -2.449219,0.615235 -1.188888,0 -2.079079,-0.348828 -2.667969,-1.048828 -0.588888,-0.7 -0.882812,-1.689019 -0.882812,-2.966797 V 33.183594 Z m 98.490237,1.917968 c 0.67778,0 1.27856,0.116277 1.80078,0.34961 0.53333,0.222222 0.98294,0.544575 1.34961,0.966797 0.36666,0.411111 0.6451,0.904644 0.83398,1.482422 0.1889,0.566666 0.28321,1.193923 0.28321,1.882812 h -9.1836 c 0.2,-1.466667 0.71098,-2.609419 1.53321,-3.431641 0.82222,-0.833333 1.94947,-1.25 3.38281,-1.25 z M 84.365234,35.25 c 1.666667,0 2.912153,0.561372 3.734375,1.683594 0.822222,1.122222 1.232422,2.69006 1.232422,4.701172 0,2 -0.4102,3.561371 -1.232422,4.683593 -0.822222,1.111111 -2.067708,1.666016 -3.734375,1.666016 -0.844444,0 -1.576996,-0.144705 -2.199218,-0.433594 -0.622222,-0.288888 -1.144184,-0.699088 -1.566407,-1.232422 -0.41111,-0.544444 -0.722482,-1.211111 -0.933593,-2 -0.2,-0.788888 -0.300782,-1.683593 -0.300782,-2.683593 0,-1 0.100782,-1.894705 0.300782,-2.683594 0.211111,-0.799999 0.522483,-1.473134 0.933593,-2.017578 0.422223,-0.544445 0.944185,-0.961112 1.566407,-1.25 C 82.788238,35.394705 83.52079,35.25 84.365234,35.25 Z"
       id="path5155"
       style="fill:#ffffff;fill-opacity:1" />
  </g>
</svg>
